<svg width="1440" height="1440" viewBox="0 0 1440 1440" fill="none" xmlns="http://www.w3.org/2000/svg">
<path fill-rule="evenodd" clip-rule="evenodd" d="M1440 0H0V1440H1440V0ZM533.448 647.022L404.873 594.808V594.775C404.448 594.622 404.059 594.382 403.73 594.072C403.402 593.761 403.141 593.386 402.965 592.971C402.788 592.555 402.699 592.107 402.703 591.655C402.707 591.203 402.805 590.757 402.989 590.344L431.453 520.263L431.94 520.169L499.086 507.64L498.272 507.308L465.405 512.343L465.167 512.248L441.76 502.694C441.327 502.522 440.934 502.261 440.607 501.928C440.28 501.595 440.026 501.198 439.861 500.761C439.545 499.949 439.545 499.048 439.861 498.236L448.722 476.419C453.037 465.785 459.324 458.678 467.404 455.261C475.485 451.844 484.973 452.303 495.602 456.618L564.282 484.516C574.922 488.831 582.033 495.117 585.445 503.198C588.857 511.279 588.397 520.767 584.083 531.396L568.253 570.377L567.766 570.477L499.728 583.77L500.592 584.119L533.692 579.178L557.131 588.694C557.572 588.869 557.969 589.137 558.297 589.48C558.623 589.823 558.872 590.233 559.026 590.682C559.316 591.566 559.279 592.526 558.92 593.385L537.901 645.138C537.74 645.562 537.498 645.95 537.187 646.28C536.876 646.61 536.504 646.875 536.09 647.06C535.706 647.221 535.293 647.305 534.877 647.304C534.387 647.304 533.901 647.208 533.448 647.022ZM553.127 644.922C556.544 653.003 563.65 659.29 574.29 663.604L652.269 695.275C658.29 697.717 663.939 698.925 669.179 698.891C673.054 698.897 676.892 698.129 680.467 696.632C688.548 693.22 694.834 686.108 699.149 675.474L733.079 591.923C737.394 581.294 737.853 571.806 734.441 563.725C731.03 555.644 723.918 549.358 713.278 545.043L635.299 513.356C624.67 509.036 615.182 508.582 607.101 511.994C599.02 515.406 592.734 522.517 588.419 533.152L554.489 616.703C550.175 627.354 549.715 636.869 553.127 644.922ZM645.878 596.935L656.235 571.457L657.786 572.089L648.963 593.817L645.878 596.935ZM629.782 636.581L639.752 612.067L642.837 608.926L631.35 637.213L629.782 636.581ZM762.312 632.898L742.506 624.856C742.11 624.698 741.751 624.46 741.452 624.156C741.154 623.851 740.922 623.488 740.772 623.089C740.468 622.244 740.498 621.315 740.855 620.491L761.963 568.505C762.288 567.668 762.914 566.982 763.719 566.583C764.105 566.403 764.523 566.305 764.948 566.296C765.373 566.286 765.796 566.365 766.189 566.528L854.426 602.313C856.088 602.994 856.819 604.872 856.088 606.678L819.676 696.344L842.734 705.704C843.129 705.86 843.487 706.098 843.785 706.401C844.082 706.705 844.313 707.067 844.462 707.465C844.766 708.312 844.737 709.243 844.379 710.068L823.648 761.124C823.424 761.756 823.016 762.305 822.476 762.7C821.935 763.096 821.288 763.319 820.618 763.34C820.208 763.34 819.802 763.26 819.422 763.107L693.139 711.835C692.714 711.683 692.324 711.444 691.996 711.133C691.667 710.823 691.406 710.447 691.23 710.031C691.054 709.615 690.966 709.166 690.971 708.714C690.976 708.262 691.075 707.816 691.262 707.404L711.993 656.343C712.146 655.917 712.385 655.528 712.696 655.199C713.006 654.87 713.381 654.61 713.797 654.433C714.213 654.256 714.661 654.167 715.113 654.171C715.566 654.176 716.012 654.274 716.424 654.46L748.299 667.404L762.312 632.898ZM962.082 713.934L934.848 702.857L935.479 701.306L993.115 724.707C994.732 725.366 996.671 724.375 997.435 722.492L1017.79 672.361C1018.53 670.555 1017.79 668.678 1016.13 667.997L890.799 617.107C890.387 616.92 889.941 616.82 889.488 616.814C889.036 616.809 888.587 616.897 888.171 617.073C887.754 617.249 887.379 617.51 887.068 617.84C886.758 618.169 886.52 618.559 886.368 618.985L851.59 704.624C851.399 705.038 851.297 705.486 851.29 705.942C851.282 706.397 851.37 706.849 851.547 707.269C851.724 707.689 851.987 708.067 852.319 708.379C852.65 708.692 853.044 708.931 853.473 709.083L905.537 730.224L904.906 731.78L852.842 710.633C851.036 709.902 849.076 710.811 848.289 712.749L827.935 762.88C827.747 763.292 827.648 763.738 827.642 764.191C827.637 764.644 827.725 765.093 827.902 765.509C828.08 765.926 828.341 766.301 828.671 766.611C829.001 766.921 829.391 767.16 829.818 767.311L924.275 805.672C928.99 807.615 934.039 808.613 939.14 808.607C943.688 808.592 948.191 807.677 952.383 805.916C961.079 802.243 967.975 795.026 971.808 785.594L981.888 760.759C990.617 739.335 983.583 722.669 962.082 713.934ZM1001.71 733.541L1058.1 756.444C1059.77 757.125 1060.48 758.997 1059.78 760.797L1048.85 787.721C1048.62 788.352 1048.21 788.902 1047.67 789.297C1047.13 789.693 1046.49 789.915 1045.82 789.936C1045.41 789.937 1045 789.858 1044.62 789.704L988.224 766.801C987.798 766.642 987.41 766.4 987.083 766.088C986.751 765.778 986.485 765.404 986.302 764.99C986.136 764.568 986.053 764.117 986.059 763.663C986.064 763.208 986.158 762.76 986.341 762.343L997.275 735.425C997.43 734.999 997.668 734.61 997.978 734.281C998.288 733.952 998.665 733.691 999.08 733.514C999.496 733.338 999.944 733.248 1000.39 733.253C1000.85 733.258 1001.3 733.356 1001.71 733.541ZM536.3 762.597C536.147 762.148 535.898 761.738 535.569 761.394C535.241 761.051 534.842 760.783 534.401 760.609L510.961 751.088L477.862 756.034L476.997 755.68L545.035 742.387L545.522 742.293L561.352 703.333C565.672 692.705 566.126 683.222 562.714 675.141C559.302 667.06 552.191 660.774 541.551 656.454L472.871 628.561C462.242 624.241 452.755 623.787 444.674 627.199C436.593 630.61 430.306 637.722 425.992 648.362L417.13 670.179C416.814 670.991 416.814 671.892 417.13 672.704C417.296 673.14 417.551 673.535 417.878 673.867C418.205 674.199 418.597 674.459 419.03 674.632L442.469 684.153L442.702 684.247L475.569 679.207L476.388 679.539L409.243 692.09L408.75 692.178L380.286 762.271C380.102 762.683 380.004 763.13 380 763.581C379.996 764.033 380.085 764.481 380.262 764.897C380.438 765.313 380.699 765.688 381.027 765.998C381.356 766.309 381.745 766.548 382.17 766.702L510.745 818.909C511.198 819.097 511.684 819.195 512.174 819.197C512.59 819.195 513.002 819.113 513.387 818.954C513.8 818.769 514.173 818.503 514.484 818.174C514.795 817.844 515.038 817.456 515.198 817.032L536.245 765.273C536.585 764.417 536.605 763.467 536.3 762.597ZM711.711 735.663C715.123 743.744 714.668 753.226 710.348 763.855L676.424 847.406C672.104 858.046 665.817 865.157 657.736 868.569C654.16 870.062 650.323 870.83 646.448 870.829C641.209 870.857 635.559 869.655 629.544 867.207L551.559 835.542C540.925 831.227 533.813 824.941 530.402 816.86C526.99 808.779 527.444 799.291 531.759 788.663L565.689 705.111C570.003 694.471 576.29 687.36 584.371 683.948C592.452 680.536 601.939 680.996 612.568 685.311L690.547 716.975C701.187 721.295 708.299 727.582 711.711 735.663ZM608.602 809.122L620.068 780.864L617.021 783.982L607.052 808.497L608.602 809.122ZM626.199 765.732L635.022 744.004L633.466 743.395L623.114 768.873L626.199 765.732ZM821.681 879.431C821.53 879.033 821.298 878.671 821 878.368C820.701 878.064 820.343 877.827 819.948 877.669L796.89 868.303L833.302 778.66C834.038 776.854 833.302 774.982 831.64 774.301L743.447 738.488C743.055 738.324 742.632 738.244 742.206 738.253C741.781 738.263 741.362 738.362 740.977 738.543C740.17 738.937 739.544 739.625 739.227 740.465L718.113 792.451C717.761 793.276 717.731 794.203 718.03 795.049C718.181 795.446 718.414 795.808 718.712 796.112C719.01 796.414 719.368 796.653 719.764 796.81L739.57 804.852L725.557 839.364L693.682 826.42C693.27 826.235 692.824 826.138 692.372 826.133C691.92 826.129 691.472 826.218 691.056 826.395C690.64 826.572 690.265 826.832 689.955 827.161C689.644 827.489 689.405 827.878 689.251 828.303L668.52 879.359C668.329 879.772 668.226 880.221 668.219 880.677C668.211 881.132 668.299 881.584 668.477 882.004C668.654 882.424 668.916 882.802 669.248 883.114C669.58 883.426 669.973 883.666 670.403 883.817L796.658 935.089C797.038 935.242 797.444 935.321 797.854 935.322C798.295 935.317 798.729 935.216 799.128 935.028C799.933 934.634 800.559 933.949 800.878 933.112L821.615 882.05C821.968 881.217 821.992 880.281 821.681 879.431ZM898.259 801.324L976.239 832.989C986.867 837.309 993.99 843.595 997.402 851.676C1000.81 859.757 1000.35 869.245 996.04 879.868L989.725 895.421C985.317 906.282 977.081 912.762 965.239 914.701C972.306 924.892 973.348 935.759 968.429 947.872L962.11 963.419C957.795 974.059 951.508 981.171 943.427 984.583C939.849 986.075 936.017 986.843 932.14 986.842C926.9 986.876 921.251 985.668 915.236 983.22L837.251 951.555C826.616 947.241 819.51 940.954 816.093 932.873C812.676 924.792 813.135 915.305 817.45 904.676L823.764 889.129C828.682 876.988 836.99 869.948 849.176 867.572C842.042 857.924 840.635 847.539 845.066 836.677L851.38 821.125C855.695 810.49 861.981 803.384 870.062 799.967C878.143 796.55 887.631 797.009 898.259 801.324ZM914.654 875.033L920.747 860.018L919.19 859.386L913.098 874.401L914.654 875.033ZM894.299 925.164L900.392 910.148L898.841 909.517L892.748 924.532L894.299 925.164Z" fill="black"/>
</svg>
