<svg width="1440" height="1440" viewBox="0 0 1440 1440" fill="none" xmlns="http://www.w3.org/2000/svg">
<path fill-rule="evenodd" clip-rule="evenodd" d="M1440 0H0V1440H1440V0ZM480.632 714.049C481.086 714.332 481.472 714.711 481.764 715.16C482.331 716.052 482.559 717.119 482.405 718.166L472.856 787.332C472.803 787.844 472.647 788.339 472.399 788.79C472.15 789.239 471.813 789.635 471.408 789.952C470.88 790.349 470.252 790.593 469.595 790.659C469.229 790.695 468.861 790.687 468.498 790.634L296.658 766.917C296.145 766.871 295.647 766.719 295.196 766.469C294.745 766.219 294.351 765.878 294.04 765.467C293.729 765.056 293.508 764.584 293.39 764.082C293.272 763.581 293.261 763.06 293.357 762.553L306.272 669.124L306.638 668.958L385.368 632.522L382.788 632.166L344.533 648.388L313.006 644.034C312.483 643.966 311.981 643.789 311.531 643.515C311.081 643.242 310.692 642.878 310.391 642.446C309.819 641.641 309.574 640.65 309.704 639.671L313.712 610.518C315.656 596.435 321.031 585.955 329.684 579.402C338.336 572.849 349.868 570.514 363.961 572.458L455.767 585.133C469.85 587.077 480.331 592.453 486.884 601.105C493.437 609.757 495.771 621.289 493.828 635.382L486.663 687.265L486.303 687.435L406.721 725.009L409.341 725.375L447.917 709.203L479.139 713.516C479.67 713.583 480.179 713.764 480.632 714.049ZM692.961 662.856C694.904 648.764 692.565 637.231 686.012 628.579C679.459 619.927 668.978 614.551 654.9 612.612L550.695 598.224C536.602 596.28 525.069 598.615 516.417 605.167C507.765 611.72 502.389 622.201 500.446 636.284L485.03 747.944C483.086 762.037 485.421 773.57 491.974 782.222C498.527 790.874 509.007 796.249 523.09 798.188L627.296 812.577C632.232 813.305 637.239 813.429 642.205 812.947C649.72 812.146 656.203 809.701 661.574 805.633C670.226 799.08 675.601 788.599 677.545 774.516L692.961 662.856ZM589.922 709.293L584.366 749.528L581.485 749.132L586.075 715.886L589.922 709.293ZM596.495 661.664L592.422 691.187L588.574 697.79L593.614 661.268L596.495 661.664ZM866.473 767.311C866.929 767.595 867.315 767.973 867.605 768.42C868.181 769.319 868.407 770.396 868.247 771.451L858.713 840.612C858.638 841.461 858.272 842.256 857.671 842.863C857.074 843.469 856.283 843.848 855.436 843.934C855.076 843.976 854.715 843.976 854.354 843.934L682.515 820.212C682.002 820.165 681.506 820.012 681.056 819.762C680.606 819.512 680.213 819.171 679.903 818.761C679.592 818.351 679.371 817.88 679.252 817.38C679.133 816.88 679.12 816.359 679.213 815.853L692.114 722.404L692.48 722.234L771.23 685.802L768.65 685.446L730.379 701.653L698.852 697.304C697.837 697.162 696.919 696.622 696.301 695.805C695.682 694.987 695.412 693.957 695.551 692.941L699.558 663.783C701.502 649.706 706.878 639.225 715.53 632.672C724.182 626.119 735.715 623.779 749.808 625.728L841.614 638.398C855.697 640.342 866.177 645.718 872.73 654.37C879.283 663.022 881.618 674.555 879.674 688.647L872.51 740.53L872.149 740.7L792.567 778.274L795.187 778.635L833.763 762.468L864.985 766.777C865.516 766.845 866.022 767.028 866.473 767.311ZM1047.81 793.279L1016.59 788.97L1033.19 668.733C1033.49 666.549 1032.19 664.695 1030.18 664.419L912.334 648.147C911.863 648.078 911.382 648.108 910.921 648.236C910.465 648.364 910.034 648.586 909.669 648.889C908.892 649.551 908.401 650.482 908.281 651.493L898.692 720.971C898.391 723.155 899.694 725.009 901.698 725.29L928.576 728.997L922.098 775.925L879.093 769.987C878.587 769.894 878.066 769.906 877.565 770.024C877.064 770.143 876.593 770.365 876.182 770.675C875.772 770.986 875.431 771.379 875.18 771.829C874.93 772.279 874.775 772.776 874.73 773.289L865.311 841.524C865.216 842.03 865.231 842.551 865.346 843.052C865.466 843.553 865.687 844.024 865.997 844.435C866.308 844.845 866.704 845.187 867.155 845.437C867.6 845.687 868.101 845.841 868.612 845.887L1037.35 869.179C1037.63 869.214 1037.92 869.214 1038.2 869.179C1039.04 869.062 1039.81 868.667 1040.39 868.057C1040.97 867.446 1041.32 866.656 1041.4 865.817L1050.82 797.582C1050.98 796.575 1050.75 795.544 1050.19 794.697C1049.91 794.307 1049.55 793.981 1049.14 793.736C1048.74 793.492 1048.28 793.336 1047.81 793.279ZM1144.29 763.895C1144.7 764.142 1145.05 764.472 1145.32 764.863C1145.88 765.706 1146.11 766.734 1145.95 767.739L1140.98 803.72C1140.87 804.732 1140.37 805.662 1139.6 806.325C1139.09 806.748 1138.46 807.01 1137.8 807.081C1137.51 807.116 1137.22 807.116 1136.93 807.081L1061.56 796.676C1061.05 796.629 1060.55 796.476 1060.1 796.227C1059.65 795.977 1059.26 795.636 1058.95 795.226C1058.64 794.816 1058.42 794.346 1058.3 793.845C1058.18 793.344 1058.16 792.823 1058.26 792.317L1063.23 756.336C1063.27 755.823 1063.43 755.326 1063.67 754.875C1063.92 754.424 1064.26 754.031 1064.67 753.72C1065.09 753.409 1065.56 753.187 1066.06 753.07C1066.56 752.951 1067.08 752.939 1067.58 753.034L1142.96 763.425C1143.43 763.488 1143.89 763.647 1144.29 763.895Z" fill="black"/>
</svg>
