<svg width="1702" height="594" viewBox="0 0 1702 594" fill="none" xmlns="http://www.w3.org/2000/svg">
<g clip-path="url(#clip0_8_4)">
<path d="M376.16 286.18C375.578 285.285 374.807 284.528 373.902 283.962C372.997 283.395 371.98 283.033 370.92 282.9L308.6 274.29L231.6 306.57L226.37 305.84L385.22 230.84L385.94 230.5L400.24 126.94C404.12 98.8102 399.46 75.7903 386.38 58.5203C373.3 41.2503 352.38 30.5199 324.27 26.6399L141.02 1.34014C112.89 -2.53986 89.8702 2.12 72.6002 15.2C55.3302 28.28 44.6002 49.1999 40.7202 77.3099L32.7202 135.5C32.4606 137.454 32.9501 139.433 34.0902 141.04C34.6928 141.901 35.4681 142.628 36.3668 143.174C37.2654 143.72 38.2678 144.073 39.3102 144.21L102.24 152.9L178.6 120.52L183.75 121.23L26.6002 193.96L25.8702 194.29L0.0901549 380.78C-0.100934 381.791 -0.0782522 382.831 0.156742 383.832C0.391737 384.834 0.833837 385.775 1.45459 386.596C2.07534 387.416 2.861 388.098 3.76099 388.596C4.66098 389.094 5.65537 389.399 6.68016 389.49L349.68 436.83C350.405 436.936 351.141 436.953 351.87 436.88C353.183 436.749 354.435 436.262 355.49 435.47C356.298 434.837 356.97 434.047 357.467 433.149C357.963 432.25 358.274 431.261 358.38 430.24L377.44 292.18C377.747 290.091 377.293 287.962 376.16 286.18Z" fill="black"/>
<path d="M797.72 181.78C801.6 153.65 796.93 130.63 783.85 113.36C770.77 96.0897 749.85 85.3596 721.75 81.4896L513.75 52.7698C485.62 48.8898 462.6 53.5497 445.33 66.6297C428.06 79.7097 417.33 100.63 413.45 128.74L382.68 351.619C378.8 379.749 383.46 402.769 396.54 420.039C409.62 437.309 430.54 448.039 458.65 451.909L666.65 480.63C676.503 482.083 686.497 482.331 696.41 481.369C711.41 479.769 724.35 474.89 735.07 466.77C752.34 453.69 763.07 432.769 766.95 404.659L797.72 181.78ZM592.05 274.47L580.96 354.78L575.21 353.99L584.37 287.63L592.05 274.47ZM605.17 179.4L597.04 238.329L589.36 251.51L599.42 178.61L605.17 179.4Z" fill="black"/>
<path d="M1146.32 392.49C1145.74 391.598 1144.97 390.844 1144.06 390.277C1143.16 389.711 1142.15 389.347 1141.09 389.21L1078.77 380.61L1001.77 412.88L996.54 412.16L1155.39 337.16L1156.11 336.82L1170.41 233.26C1174.29 205.13 1169.63 182.11 1156.55 164.84C1143.47 147.57 1122.55 136.84 1094.44 132.96L911.19 107.67C883.06 103.78 860.04 108.45 842.77 121.53C825.5 134.61 814.77 155.53 810.89 183.63L802.89 241.83C802.613 243.858 803.152 245.914 804.387 247.546C805.622 249.178 807.453 250.255 809.48 250.54L872.41 259.22L948.8 226.87L953.95 227.58L796.76 300.3L796.03 300.64L770.28 487.17C770.094 488.18 770.12 489.218 770.357 490.217C770.594 491.216 771.036 492.155 771.656 492.974C772.276 493.792 773.06 494.472 773.958 494.971C774.856 495.47 775.847 495.776 776.87 495.87L1119.87 543.22C1120.59 543.305 1121.31 543.305 1122.03 543.22C1123.72 543.048 1125.3 542.292 1126.49 541.082C1127.69 539.871 1128.42 538.283 1128.57 536.59L1147.6 398.54C1147.92 396.435 1147.47 394.285 1146.32 392.49Z" fill="black"/>
<path d="M1506.01 442.11L1443.7 433.51L1476.83 193.51C1477.43 189.15 1474.83 185.45 1470.83 184.9L1235.6 152.42C1234.66 152.282 1233.7 152.342 1232.78 152.597C1231.87 152.852 1231.01 153.296 1230.28 153.9C1228.73 155.222 1227.75 157.079 1227.51 159.099L1208.37 297.78C1207.77 302.14 1210.37 305.84 1214.37 306.4L1268.02 313.8L1255.09 407.47L1169.25 395.619C1168.24 395.432 1167.2 395.457 1166.2 395.693C1165.2 395.929 1164.26 396.372 1163.44 396.992C1162.62 397.612 1161.94 398.396 1161.44 399.295C1160.94 400.193 1160.63 401.186 1160.54 402.21L1141.74 538.41C1141.55 539.42 1141.58 540.459 1141.81 541.459C1142.05 542.46 1142.49 543.4 1143.11 544.22C1143.73 545.039 1144.52 545.721 1145.42 546.22C1146.31 546.719 1147.31 547.026 1148.33 547.119L1485.13 593.61C1485.7 593.68 1486.27 593.68 1486.84 593.61C1488.51 593.378 1490.04 592.589 1491.2 591.37C1492.36 590.151 1493.07 588.575 1493.22 586.9L1512.02 450.7C1512.34 448.689 1511.89 446.632 1510.76 444.94C1510.21 444.163 1509.5 443.511 1508.68 443.023C1507.87 442.536 1506.96 442.225 1506.01 442.11Z" fill="black"/>
<path d="M1700.65 385.39C1700.11 384.61 1699.41 383.952 1698.6 383.458C1697.79 382.964 1696.88 382.645 1695.94 382.52L1545.49 361.78C1544.48 361.59 1543.44 361.614 1542.44 361.85C1541.44 362.085 1540.5 362.528 1539.68 363.148C1538.86 363.769 1538.18 364.554 1537.68 365.454C1537.19 366.353 1536.88 367.346 1536.79 368.37L1526.87 440.19C1526.68 441.201 1526.71 442.239 1526.95 443.239C1527.19 444.239 1527.63 445.178 1528.25 445.997C1528.87 446.815 1529.66 447.495 1530.55 447.994C1531.45 448.492 1532.45 448.797 1533.47 448.89L1683.91 469.66C1684.48 469.73 1685.07 469.73 1685.64 469.66C1686.96 469.519 1688.21 468.995 1689.23 468.15C1690.78 466.828 1691.77 464.97 1692 462.95L1701.91 391.13C1702.23 389.126 1701.78 387.074 1700.65 385.39Z" fill="black"/>
</g>
<defs>
<clipPath id="clip0_8_4">
<rect width="1702" height="593.68" fill="white"/>
</clipPath>
</defs>
</svg>
