<svg width="1659" height="668" viewBox="0 0 1659 668" fill="none" xmlns="http://www.w3.org/2000/svg">
<g clip-path="url(#clip0_8_40)">
<path d="M275.09 360.38C274.715 358.821 273.783 357.451 272.47 356.53C271.799 356.068 271.036 355.757 270.233 355.619C269.43 355.481 268.607 355.519 267.82 355.731L225.65 366.6L184.96 407.36L183.41 407.76L264.41 319.04L246.33 248.921C241.41 229.801 232.33 216.22 219.33 208.55C212.635 204.67 205.147 202.355 197.43 201.78C188.512 201.16 179.553 202.049 170.93 204.41L47.37 236.26C28.25 241.19 14.67 250.26 6.99004 263.26C3.10948 269.956 0.79497 277.443 0.220033 285.16C-0.399687 294.082 0.489449 303.045 2.85004 311.671L12.97 350.901C13.3574 352.351 14.2744 353.603 15.54 354.41C16.2149 354.843 16.972 355.131 17.7637 355.256C18.5553 355.382 19.3644 355.342 20.14 355.14L62.3 344.271L62.72 344.16L103 303.53L104.48 303.151L23.93 389.95L56.42 516.021C56.5966 516.781 56.9228 517.499 57.3794 518.132C57.8361 518.766 58.4142 519.303 59.08 519.711C59.8676 520.172 60.7578 520.43 61.67 520.461C62.3167 520.48 62.9628 520.409 63.59 520.251L294.86 460.64C295.625 460.476 296.347 460.155 296.982 459.698C297.616 459.24 298.149 458.656 298.547 457.983C298.944 457.309 299.198 456.56 299.291 455.783C299.385 455.007 299.316 454.219 299.09 453.47L275.09 360.38Z" fill="black"/>
<path d="M368.32 441.7L508.58 405.53C527.7 400.6 541.28 391.53 548.96 378.53C556.64 365.53 558.02 349.25 553.09 330.13L514.36 179.849C509.43 160.739 500.36 147.15 487.36 139.48C480.662 135.598 473.171 133.283 465.45 132.71C456.532 132.09 447.573 132.979 438.95 135.34L298.67 171.53C289.98 173.626 281.707 177.176 274.2 182.03C267.684 186.218 262.239 191.875 258.302 198.547C254.365 205.219 252.046 212.72 251.53 220.45C250.91 229.368 251.8 238.327 254.16 246.95L292.9 397.23C297.82 416.35 306.9 429.929 319.9 437.599C327.404 441.952 335.878 444.359 344.55 444.599C352.573 444.802 360.582 443.825 368.32 441.7ZM387.13 230.289L389.92 229.57L400 268.65L399 276.15L387.13 230.289ZM405.97 303.369L406.97 295.869L420.08 346.74L417.29 347.46L405.97 303.369Z" fill="black"/>
<path d="M554.39 211.37C554.534 212.106 554.825 212.805 555.246 213.425C555.667 214.046 556.209 214.574 556.84 214.98C557.47 215.385 558.176 215.659 558.915 215.784C559.654 215.91 560.411 215.885 561.14 215.71L596.75 206.53L612.75 268.6L555.41 283.38C554.644 283.542 553.92 283.861 553.283 284.318C552.647 284.775 552.113 285.359 551.715 286.033C551.317 286.708 551.064 287.458 550.972 288.235C550.88 289.013 550.951 289.802 551.18 290.55L574.86 382.39C575.033 383.151 575.356 383.87 575.812 384.503C576.267 385.137 576.844 385.673 577.51 386.08C578.301 386.543 579.194 386.801 580.11 386.83C580.757 386.858 581.404 386.787 582.03 386.62L809.11 328.09C812.11 327.31 813.76 324.271 812.93 321.021L789.25 229.19C789.106 228.455 788.815 227.756 788.394 227.135C787.973 226.515 787.431 225.987 786.8 225.581C786.17 225.176 785.464 224.902 784.725 224.776C783.986 224.651 783.229 224.676 782.5 224.85L741.05 235.53L699.48 74.2505C699.336 73.5149 699.045 72.8156 698.624 72.1954C698.203 71.5751 697.661 71.0466 697.03 70.6412C696.4 70.2358 695.694 69.962 694.955 69.8365C694.216 69.7109 693.459 69.7358 692.73 69.9102L534.1 110.8C533.39 110.979 532.724 111.303 532.146 111.752C531.567 112.201 531.088 112.766 530.74 113.41C530.032 114.783 529.871 116.374 530.29 117.86L554.39 211.37Z" fill="black"/>
<path d="M779.43 158.71C781.527 167.4 785.076 175.673 789.93 183.18C794.119 189.696 799.776 195.141 806.447 199.078C813.119 203.014 820.62 205.334 828.35 205.85C837.268 206.469 846.227 205.58 854.85 203.22L926.38 184.78L933.98 214.289L931.19 215.01L925.77 194.01C925.608 193.243 925.289 192.519 924.832 191.883C924.376 191.247 923.791 190.713 923.117 190.315C922.442 189.917 921.692 189.664 920.915 189.572C920.137 189.48 919.349 189.55 918.6 189.78L801.3 220.02C800.534 220.181 799.809 220.501 799.173 220.957C798.537 221.414 798.003 221.998 797.605 222.673C797.207 223.347 796.954 224.097 796.862 224.875C796.77 225.653 796.841 226.441 797.07 227.19L806.76 264.76C811.68 283.87 820.76 297.46 833.76 305.13C841.264 309.483 849.738 311.889 858.41 312.13C866.422 312.348 874.423 311.395 882.16 309.3L1022.42 273.14C1041.54 268.22 1055.12 259.14 1062.79 246.14C1070.46 233.14 1071.86 216.85 1066.93 197.74L1028.2 47.4599C1023.27 28.3399 1014.2 14.7598 1001.2 7.08978C988.2 -0.580223 971.92 -1.98036 952.8 2.94964L812.53 39.0297C803.841 41.1289 795.568 44.6787 788.06 49.5297C781.584 53.7658 776.149 59.4093 772.16 66.0395C764.48 79.0395 763.09 95.3296 768.02 114.45L779.43 158.71ZM900.99 97.8398L903.78 97.1196L910.96 124.96L908.16 125.68L900.99 97.8398Z" fill="black"/>
<path d="M1062.91 149.74C1063.16 150.959 1063.82 152.058 1064.77 152.863C1065.72 153.669 1066.91 154.136 1068.15 154.19C1068.8 154.209 1069.45 154.134 1070.08 153.97L1171.52 127.82C1172.23 127.644 1172.9 127.321 1173.48 126.871C1174.06 126.422 1174.53 125.856 1174.88 125.21C1175.59 123.838 1175.75 122.247 1175.33 120.76L1162.85 72.34C1162.49 70.8361 1161.58 69.5218 1160.3 68.6598C1159.68 68.263 1158.99 67.9995 1158.27 67.8859C1157.55 67.7722 1156.81 67.8112 1156.1 68.0001L1054.66 94.15C1053.89 94.3087 1053.17 94.6261 1052.53 95.0822C1051.89 95.5382 1051.36 96.1227 1050.96 96.798C1050.56 97.4733 1050.31 98.2243 1050.22 99.0031C1050.12 99.7818 1050.2 100.571 1050.43 101.32L1062.91 149.74Z" fill="black"/>
<path d="M869.11 507.45C868.951 506.66 868.634 505.909 868.178 505.244C867.722 504.579 867.137 504.013 866.458 503.579C865.778 503.145 865.018 502.852 864.223 502.718C863.428 502.585 862.614 502.612 861.83 502.8L819.67 513.67L778.98 554.43L777.43 554.83L858.43 466.11L840.36 395.99C835.43 376.88 826.36 363.29 813.36 355.62C800.36 347.95 784.07 346.53 764.95 351.53L641.39 383.33C622.27 388.26 608.69 397.33 601.02 410.33C597.139 417.03 594.821 424.52 594.24 432.24C593.624 441.159 594.516 450.118 596.88 458.74L606.99 497.981C607.382 499.429 608.298 500.679 609.56 501.49C610.235 501.921 610.993 502.207 611.785 502.331C612.576 502.455 613.385 502.414 614.16 502.211L656.32 491.34L656.74 491.231L697.02 450.58L698.49 450.2L617.94 537.001L650.44 663.07C650.689 664.289 651.34 665.388 652.288 666.193C653.236 666.998 654.427 667.462 655.67 667.51C656.323 667.537 656.977 667.466 657.61 667.3L888.87 607.69C889.635 607.528 890.359 607.207 890.994 606.75C891.629 606.293 892.163 605.709 892.56 605.035C892.958 604.361 893.211 603.611 893.304 602.834C893.397 602.057 893.327 601.269 893.1 600.521L869.11 507.45Z" fill="black"/>
<path d="M1108.37 326.91C1103.44 307.8 1094.37 294.21 1081.37 286.54C1068.37 278.87 1052.08 277.481 1032.96 282.401L892.68 318.53C873.57 323.46 859.98 332.53 852.31 345.53C844.64 358.53 843.25 374.82 848.17 393.93L886.91 544.211C891.84 563.331 900.91 576.91 913.91 584.58C921.411 588.94 929.887 591.346 938.56 591.58C946.572 591.805 954.575 590.852 962.31 588.751L1102.58 552.6C1121.69 547.67 1135.27 538.6 1142.95 525.6C1150.63 512.6 1152.01 496.311 1147.09 477.191L1108.37 326.91ZM1014.14 493.81L1011.34 494.53L999.98 450.441L1000.98 442.941L1014.14 493.81ZM994.01 415.72L993.01 423.231L981.19 377.36L983.98 376.64L994.01 415.72Z" fill="black"/>
<path d="M1388.39 373.6C1388.02 372.04 1387.08 370.671 1385.77 369.75C1385.1 369.288 1384.33 368.976 1383.53 368.838C1382.72 368.7 1381.9 368.738 1381.11 368.95L1338.95 379.82L1298.27 420.58L1296.71 420.98L1377.16 332.89L1377.74 332.26L1359.66 262.14C1357.56 253.452 1354.01 245.18 1349.16 237.67C1344.92 231.192 1339.28 225.757 1332.64 221.77C1319.64 214.1 1303.35 212.7 1284.24 217.63L1160.67 249.53C1141.56 254.46 1127.97 263.53 1120.3 276.53C1116.42 283.226 1114.1 290.713 1113.53 298.43C1112.91 307.348 1113.8 316.308 1116.16 324.93L1126.28 364.17C1126.67 365.621 1127.58 366.873 1128.85 367.68C1129.52 368.115 1130.28 368.405 1131.07 368.531C1131.86 368.656 1132.67 368.615 1133.45 368.41L1175.61 357.54L1176.03 357.43L1216.3 316.78L1217.77 316.4L1137.23 403.2L1169.75 529.24C1169.93 530.001 1170.25 530.719 1170.71 531.352C1171.17 531.986 1171.74 532.522 1172.41 532.93C1173.2 533.392 1174.09 533.649 1175 533.68C1175.65 533.698 1176.29 533.628 1176.92 533.47L1408.19 473.86C1408.96 473.699 1409.68 473.38 1410.32 472.923C1410.95 472.466 1411.49 471.881 1411.88 471.207C1412.28 470.532 1412.54 469.783 1412.63 469.005C1412.72 468.227 1412.65 467.439 1412.42 466.69L1388.39 373.6Z" fill="black"/>
<path d="M1658.26 403.31L1634.58 311.47C1634.44 310.735 1634.15 310.036 1633.72 309.417C1633.3 308.797 1632.76 308.269 1632.13 307.864C1631.5 307.459 1630.79 307.186 1630.05 307.062C1629.32 306.938 1628.56 306.964 1627.83 307.14L1586.36 317.82L1544.75 156.53C1544.39 155.027 1543.48 153.712 1542.2 152.85C1541.58 152.453 1540.89 152.19 1540.17 152.076C1539.45 151.963 1538.71 152.002 1538 152.191L1379.37 193.08C1378.65 193.28 1377.97 193.624 1377.39 194.091C1376.8 194.558 1376.32 195.139 1375.96 195.798C1375.6 196.458 1375.39 197.182 1375.32 197.928C1375.25 198.675 1375.33 199.427 1375.56 200.14L1399.66 293.651C1400.02 295.152 1400.93 296.462 1402.21 297.32C1402.82 297.718 1403.52 297.983 1404.24 298.099C1404.96 298.214 1405.7 298.177 1406.41 297.99L1442.04 288.8L1458.04 350.87L1400.75 365.671C1399.98 365.833 1399.26 366.153 1398.63 366.61C1397.99 367.068 1397.46 367.652 1397.06 368.326C1396.66 369 1396.41 369.749 1396.32 370.527C1396.22 371.304 1396.29 372.092 1396.52 372.84L1420.19 464.68C1420.37 465.441 1420.69 466.159 1421.15 466.793C1421.61 467.426 1422.18 467.962 1422.85 468.37C1423.64 468.832 1424.53 469.089 1425.44 469.12C1426.09 469.139 1426.73 469.069 1427.36 468.91L1654.45 410.37C1657.45 409.6 1659.09 406.53 1658.26 403.31Z" fill="black"/>
</g>
<defs>
<clipPath id="clip0_8_40">
<rect width="1658.47" height="667.54" fill="white"/>
</clipPath>
</defs>
</svg>
