<svg width="1713" height="577" viewBox="0 0 1713 577" fill="none" xmlns="http://www.w3.org/2000/svg">
<g clip-path="url(#clip0_7_2)">
<path d="M26.0801 344.94L20.3001 311.4C20.1634 310.854 20.1394 310.285 20.2295 309.729C20.3195 309.173 20.5218 308.641 20.824 308.166C21.1262 307.691 21.522 307.282 21.9872 306.965C22.4524 306.648 22.9774 306.428 23.5301 306.32L135.74 286.95C136.235 286.822 136.751 286.797 137.257 286.875C137.762 286.954 138.246 287.135 138.679 287.407C139.111 287.68 139.484 288.038 139.773 288.46C140.062 288.882 140.262 289.358 140.36 289.86L143.8 309.86L149.39 308.86L144.29 279.31L74.4101 291.37C38.4701 297.57 15.1301 281.45 8.86011 245.11L1.27011 201.18C-4.92989 165.24 11.5901 141.83 47.5301 135.63L181.71 112.47C217.65 106.27 241.06 122.79 247.27 158.73L253.33 193.87C253.454 194.397 253.464 194.944 253.361 195.475C253.258 196.006 253.043 196.509 252.731 196.951C252.419 197.394 252.018 197.765 251.552 198.04C251.086 198.316 250.568 198.489 250.03 198.55L137.81 217.92C137.316 218.048 136.802 218.074 136.297 217.996C135.793 217.918 135.311 217.738 134.879 217.466C134.447 217.194 134.075 216.837 133.787 216.417C133.498 215.996 133.298 215.521 133.2 215.02L129.55 193.85L123.96 194.85L129.26 225.6L199.15 213.54C235.09 207.34 258.43 223.46 264.7 259.8L271.94 301.73C277.59 334.48 257.76 362.57 225.02 368.22L91.6401 391.22C55.7001 397.4 32.2901 380.88 26.0801 344.94ZM247.99 101.03L359.81 81.7102C360.337 81.585 360.884 81.5735 361.416 81.676C361.948 81.7785 362.452 81.9928 362.894 82.3049C363.337 82.6169 363.708 83.0196 363.983 83.486C364.258 83.9524 364.431 84.4717 364.49 85.01L407.22 332.6C407.344 333.128 407.354 333.676 407.25 334.207C407.146 334.739 406.931 335.242 406.618 335.685C406.305 336.127 405.902 336.498 405.435 336.773C404.968 337.048 404.449 337.221 403.91 337.28L292.1 356.58C291.573 356.704 291.025 356.714 290.493 356.61C289.961 356.506 289.458 356.291 289.016 355.978C288.573 355.665 288.202 355.262 287.927 354.795C287.652 354.328 287.479 353.809 287.42 353.27L244.69 105.71C244.568 105.184 244.559 104.637 244.663 104.107C244.767 103.576 244.982 103.074 245.293 102.632C245.605 102.19 246.006 101.819 246.471 101.543C246.935 101.267 247.453 101.092 247.99 101.03ZM374.18 79.26L560.27 47.1403C596.21 40.9403 619.62 57.4601 625.83 93.4001L650.64 237.16C656.84 273.1 640.32 296.51 604.38 302.72L418.29 334.83C417.763 334.954 417.215 334.964 416.684 334.861C416.152 334.758 415.648 334.543 415.205 334.232C414.762 333.92 414.39 333.518 414.114 333.052C413.837 332.587 413.662 332.068 413.6 331.53L370.88 83.9401C370.753 83.4132 370.74 82.8651 370.842 82.3327C370.944 81.8004 371.158 81.2962 371.471 80.8532C371.783 80.4103 372.186 80.039 372.653 79.7644C373.121 79.4897 373.641 79.3175 374.18 79.26ZM522.5 245.26L528.09 244.26L507.97 127.71L502.38 128.71L522.5 245.26ZM665.98 287.94L623.25 40.3601C623.127 39.8327 623.116 39.2853 623.219 38.7536C623.323 38.222 623.537 37.718 623.849 37.2751C624.16 36.8322 624.562 36.4604 625.028 36.1838C625.493 35.9072 626.012 35.732 626.55 35.6701L833.01 0.0402395C833.538 -0.0832486 834.085 -0.0933573 834.617 0.0104544C835.149 0.114266 835.652 0.329459 836.095 0.64229C836.537 0.955122 836.908 1.35814 837.183 1.82491C837.458 2.29167 837.631 2.81179 837.69 3.3503L853.13 92.8C853.254 93.3268 853.264 93.8739 853.161 94.405C853.058 94.9361 852.843 95.4394 852.531 95.8815C852.22 96.3237 851.818 96.6948 851.352 96.9704C850.886 97.246 850.368 97.4196 849.83 97.4802L759.18 113.13L760.18 118.72L850.83 103.07C851.358 102.947 851.905 102.936 852.437 103.04C852.969 103.144 853.472 103.36 853.915 103.673C854.357 103.985 854.728 104.388 855.003 104.855C855.278 105.322 855.451 105.842 855.51 106.38L863.37 151.9C863.446 152.405 863.417 152.92 863.287 153.413C863.156 153.906 862.926 154.367 862.61 154.768C862.294 155.169 861.9 155.502 861.451 155.744C861.002 155.987 860.508 156.136 860 156.18L769.35 171.83L770.35 177.83L861 162.18C861.495 162.052 862.01 162.026 862.515 162.105C863.019 162.184 863.503 162.365 863.935 162.638C864.367 162.911 864.738 163.269 865.026 163.691C865.314 164.112 865.513 164.589 865.61 165.09L880.43 250.95C880.554 251.477 880.564 252.024 880.461 252.555C880.358 253.086 880.143 253.589 879.831 254.031C879.519 254.474 879.118 254.845 878.652 255.12C878.186 255.396 877.668 255.569 877.13 255.63L670.67 291.26C670.143 291.385 669.596 291.397 669.065 291.296C668.533 291.194 668.029 290.98 667.586 290.669C667.143 290.358 666.77 289.957 666.494 289.492C666.217 289.027 666.042 288.508 665.98 287.97V287.94ZM523.35 528.89L517.56 495.35C517.425 494.803 517.402 494.234 517.492 493.678C517.583 493.122 517.785 492.591 518.087 492.115C518.389 491.639 518.784 491.23 519.249 490.911C519.713 490.592 520.238 490.371 520.79 490.26L633.01 470.9C633.504 470.772 634.019 470.746 634.523 470.824C635.027 470.903 635.51 471.083 635.942 471.354C636.373 471.626 636.745 471.983 637.034 472.404C637.322 472.824 637.522 473.299 637.62 473.8L641.07 493.8L646.66 492.8L641.56 463.24L571.67 475.3C535.73 481.51 512.39 465.39 506.12 429.05L498.54 385.12C492.33 349.18 508.86 325.77 544.8 319.56L678.97 296.41C714.91 290.21 738.33 306.73 744.53 342.67L750.59 377.81C750.715 378.337 750.727 378.885 750.624 379.416C750.522 379.948 750.307 380.452 749.995 380.894C749.683 381.337 749.281 381.708 748.814 381.983C748.348 382.258 747.828 382.431 747.29 382.49L635.07 401.86C634.576 401.987 634.061 402.011 633.557 401.932C633.052 401.852 632.57 401.671 632.138 401.399C631.707 401.126 631.335 400.768 631.047 400.347C630.758 399.926 630.559 399.451 630.46 398.95L626.81 377.8L621.22 378.8L626.52 409.55L696.41 397.49C732.35 391.29 755.69 407.41 761.96 443.75L769.2 485.68C774.85 518.43 755.03 546.52 722.28 552.17L588.9 575.17C552.96 581.35 529.55 564.83 523.35 528.89ZM934.43 256.45L949.87 345.9C949.994 346.428 950.004 346.975 949.9 347.507C949.796 348.039 949.581 348.542 949.268 348.985C948.955 349.427 948.552 349.798 948.085 350.073C947.618 350.348 947.099 350.521 946.56 350.58L914.22 356.16L940.81 510.31C940.937 510.805 940.961 511.32 940.882 511.824C940.802 512.328 940.621 512.811 940.348 513.242C940.076 513.674 939.718 514.045 939.297 514.334C938.876 514.622 938.401 514.822 937.9 514.92L825.69 534.28C825.163 534.407 824.615 534.42 824.083 534.318C823.55 534.216 823.046 534.002 822.603 533.69C822.16 533.377 821.789 532.974 821.514 532.507C821.239 532.04 821.068 531.519 821.01 530.98L794.41 376.84L762.06 382.42C761.533 382.544 760.985 382.554 760.453 382.45C759.921 382.346 759.418 382.131 758.976 381.818C758.533 381.505 758.162 381.102 757.887 380.635C757.612 380.169 757.439 379.649 757.38 379.11L741.95 289.71C741.827 289.183 741.816 288.635 741.92 288.103C742.024 287.572 742.24 287.068 742.552 286.626C742.865 286.183 743.268 285.812 743.735 285.537C744.202 285.262 744.722 285.089 745.26 285.03L929.75 253.19C930.274 253.067 930.818 253.055 931.346 253.156C931.875 253.257 932.376 253.468 932.818 253.775C933.259 254.083 933.631 254.48 933.909 254.941C934.187 255.402 934.364 255.916 934.43 256.45ZM949.77 307.26C943.57 271.32 960.09 247.91 996.03 241.7L1130.21 218.55C1166.15 212.35 1189.56 228.87 1195.76 264.81L1220.57 408.57C1226.77 444.51 1210.25 467.92 1174.31 474.12L1040.14 497.28C1004.2 503.48 980.78 486.96 974.58 451.02L949.77 307.26ZM1092.3 415.9L1097.89 414.9L1078.04 299.9L1072.45 300.9L1092.3 415.9ZM1434.41 301.35L1465.64 322.69L1481.9 416.93C1482.03 417.457 1482.04 418.005 1481.93 418.536C1481.83 419.068 1481.62 419.572 1481.31 420.014C1480.99 420.457 1480.59 420.828 1480.12 421.103C1479.66 421.378 1479.14 421.551 1478.6 421.61L1366.39 440.98C1365.86 441.104 1365.31 441.114 1364.78 441.01C1364.25 440.906 1363.74 440.691 1363.3 440.378C1362.86 440.065 1362.49 439.663 1362.21 439.196C1361.93 438.729 1361.76 438.209 1361.7 437.67L1348.47 361L1341.78 355.57L1356.11 438.64C1356.24 439.167 1356.25 439.715 1356.14 440.246C1356.04 440.778 1355.83 441.282 1355.52 441.724C1355.2 442.167 1354.8 442.538 1354.33 442.813C1353.87 443.088 1353.35 443.261 1352.81 443.32L1240.6 462.71C1240.07 462.835 1239.52 462.847 1238.99 462.744C1238.46 462.642 1237.96 462.428 1237.51 462.116C1237.07 461.804 1236.7 461.401 1236.42 460.935C1236.14 460.468 1235.97 459.949 1235.91 459.41L1193.19 211.82C1193.06 211.293 1193.05 210.746 1193.16 210.214C1193.26 209.682 1193.47 209.179 1193.78 208.736C1194.1 208.293 1194.5 207.922 1194.97 207.647C1195.43 207.372 1195.95 207.199 1196.49 207.14L1382.58 175.02C1418.52 168.82 1441.93 185.34 1448.14 221.28L1453.44 252.03C1457.37 274.77 1449.33 290.13 1434.41 301.35ZM1330.41 256.35L1324.82 257.35L1331.82 298.08L1337.41 297.08L1330.41 256.35ZM1551.41 404.92L1542.73 354.6L1466.47 289.22L1445.59 168.22C1445.47 167.693 1445.46 167.147 1445.56 166.615C1445.66 166.084 1445.88 165.581 1446.19 165.139C1446.5 164.697 1446.9 164.326 1447.37 164.05C1447.83 163.774 1448.35 163.601 1448.89 163.54L1561.11 144.17C1561.64 144.047 1562.19 144.037 1562.72 144.14C1563.25 144.244 1563.75 144.459 1564.19 144.772C1564.64 145.085 1565.01 145.489 1565.28 145.955C1565.56 146.422 1565.73 146.942 1565.79 147.48L1581.36 237.73L1584.85 241.24L1586.95 236.76L1571.38 146.51C1571.26 145.983 1571.25 145.437 1571.35 144.905C1571.45 144.374 1571.67 143.871 1571.98 143.429C1572.29 142.987 1572.69 142.616 1573.16 142.34C1573.62 142.064 1574.14 141.891 1574.68 141.83L1686.9 122.46C1687.43 122.337 1687.98 122.327 1688.51 122.43C1689.04 122.534 1689.54 122.749 1689.98 123.062C1690.43 123.375 1690.8 123.779 1691.07 124.245C1691.35 124.712 1691.52 125.232 1691.58 125.77L1712.46 246.77L1662.53 333.93L1671.21 384.24C1671.34 384.734 1671.36 385.25 1671.29 385.755C1671.21 386.259 1671.03 386.743 1670.76 387.176C1670.48 387.608 1670.13 387.981 1669.71 388.27C1669.29 388.56 1668.81 388.761 1668.31 388.86L1556.09 408.22C1555.56 408.35 1555.01 408.366 1554.48 408.267C1553.95 408.168 1553.44 407.956 1552.99 407.646C1552.55 407.335 1552.17 406.934 1551.89 406.467C1551.62 406 1551.44 405.48 1551.38 404.94L1551.41 404.92Z" fill="black"/>
</g>
<defs>
<clipPath id="clip0_7_2">
<rect width="1712.44" height="576.43" fill="white"/>
</clipPath>
</defs>
</svg>
