<svg width="1303" height="1108" viewBox="0 0 1303 1108" fill="none" xmlns="http://www.w3.org/2000/svg">
<g clip-path="url(#clip0_8_15)">
<path d="M168.79 508.38L192.63 496.72L205.49 511.06C245.027 509.88 284.599 511.397 323.93 515.6L329.06 510.87L345.26 525.45C387.26 523.54 426.26 524.98 461.03 529.74L469.25 521.54C469.57 522.64 469.9 523.75 470.25 524.86L492.84 538.94C538.6 531.05 579.97 526.34 615.84 524.94L633.08 496.28C619.7 468.51 604.94 440.03 589.22 411.64L587.17 407.78L607.92 409.92L629.79 392.11L638.79 304.67L638.52 304.34L658.67 287.95L667.57 201.71L649.73 179.71L644.47 179.17L654 87.11L636.16 65.11L305.67 31.01L299.45 14.02L163.45 0.0200195L145.2 8.18002C138.315 17.8966 129.303 25.9136 118.85 31.62C111.2 35.8 95.5901 41.94 64.6401 47.48L49.5001 74.36C55.5796 90.2625 60.0323 106.74 62.7901 123.54L45.6401 137.48L36.7501 223.73L53.1301 243.88L52.8001 244.15L43.8001 331.59L61.6501 353.54L77.2501 355.15C71.6382 368.487 65.1955 381.459 57.9601 393.99C49.6101 408.17 36.9601 423.58 20.3501 439.79L30.0101 473.63C74.0601 483.37 120.76 495.11 168.79 508.38Z" fill="black"/>
<path d="M1288.45 291.11L1302.55 154.55L1284.7 132.6L1084.06 111.9L1068.48 92.74L931.37 78.63L912.21 94.2L711.56 73.5L689.62 91.34L675.52 227.9L693.37 249.9L751.37 255.9L749.24 276.11L755.45 283.74C733.89 284.83 709.27 285.21 681.9 284.85L665.04 316C672.57 327.21 680.29 342.57 687.98 361.68L681.89 361.78L668.89 396.78C672.936 400.392 676.469 404.54 679.39 409.11C682.417 413.852 685.133 418.786 687.52 423.88C678.427 424.253 669.067 424.557 659.44 424.79L645.16 458.27C663.01 477.81 678.01 507.1 689.77 545.27L711.83 559.18C754.76 552.78 792.83 544.18 825.33 533.6C826.737 536.753 828.07 539.883 829.33 542.99C833.07 552.37 834.49 557.99 835.03 560.99L852.67 577.38C911.67 583.47 955.07 583.16 985.34 576.38C1018.97 568.9 1041.03 556.16 1052.78 537.45C1061.24 523.98 1067.12 507.02 1070.61 485.9C1094.23 529.9 1120.43 567.143 1149.2 597.63H1178.2C1186.37 589.04 1196.91 576.4 1210.42 558.99L1212.13 556.92C1215.56 552.767 1221.61 545.45 1230.28 534.97C1240.57 522.51 1251.58 510.06 1263 497.97L1259.85 467.82C1243.95 456.817 1229.12 444.327 1215.58 430.52C1242.48 416.6 1263.35 403.52 1278.96 390.84L1281.6 362.39C1273.1 352.317 1265.75 341.333 1259.67 329.64C1256.39 323.347 1252.7 315.813 1248.59 307.04L1266.54 308.89L1288.45 291.11Z" fill="black"/>
<path d="M595.34 678.11L408.01 658.78L418.07 561.28L400.23 539.33L254.08 524.25L232.14 542.09L222.08 639.59L34.74 620.26L12.79 638.1L0 762.08L17.84 784.03L205.18 803.36L184.74 1001.48L202.58 1023.42L348.72 1038.5L370.67 1020.66L391.11 822.54L578.45 841.88L600.39 824.03L613.18 700.05L595.34 678.11Z" fill="black"/>
<path d="M1217.29 776.3L1228.45 668.5L1210.61 646.55L884.05 612.86C884.597 610.273 885.113 607.727 885.6 605.22L868.19 581.56L732.95 566.4L710.86 583.94C707.86 609.76 699.86 632.56 687.11 651.71C674.47 670.71 658.6 685.32 639.94 695.16L631.35 721.75C641.197 741.58 649.388 762.19 655.84 783.37C662.12 804.01 668.58 828.77 675.07 857.03L643.2 853.74L621.2 871.58L609.46 985.38L627.3 1007.32L868.54 1032.22L864.48 1071.62L882.32 1093.56L1013.54 1107.11L1035.48 1089.27L1039.55 1049.87L1190.35 1065.43L1212.3 1047.58L1224.04 933.79L1206.2 911.84L1172.92 908.41L1188.63 895.63L1198.46 800.4L1193.2 793.94L1195.34 794.16L1217.29 776.3Z" fill="black"/>
</g>
<defs>
<clipPath id="clip0_8_15">
<rect width="1302.58" height="1107.1" fill="white"/>
</clipPath>
</defs>
</svg>
