<svg width="1440" height="1440" viewBox="0 0 1440 1440" fill="none" xmlns="http://www.w3.org/2000/svg">
<path fill-rule="evenodd" clip-rule="evenodd" d="M1440 0H0V1440H1440V0ZM393.717 732.975C394.487 733.515 395.033 734.318 395.253 735.232L409.323 789.805C409.455 790.245 409.496 790.706 409.441 791.161C409.386 791.617 409.237 792.056 409.005 792.451C408.771 792.846 408.459 793.188 408.087 793.456C407.715 793.724 407.292 793.913 406.843 794.009L271.262 828.955C270.895 829.048 270.516 829.09 270.137 829.078C269.602 829.06 269.08 828.909 268.618 828.639C268.228 828.4 267.889 828.085 267.621 827.713C267.354 827.342 267.163 826.921 267.059 826.476L248.012 752.567L295.234 701.682L294.366 701.904L270.752 725.723L270.506 725.788L245.79 732.16C245.335 732.278 244.861 732.302 244.397 732.228C243.933 732.155 243.489 731.986 243.093 731.732C242.351 731.259 241.814 730.525 241.587 729.675L235.654 706.677C234.27 701.62 233.749 696.365 234.112 691.135C234.449 686.611 235.806 682.221 238.081 678.296C242.583 670.675 250.545 665.357 261.754 662.467L334.19 643.795C339.245 642.411 344.497 641.89 349.725 642.253C354.249 642.591 358.639 643.948 362.564 646.222C370.185 650.719 375.508 658.681 378.393 669.89L388.992 710.997L341.506 763.008L342.415 762.774L366.269 738.878L390.991 732.506C391.452 732.382 391.935 732.36 392.406 732.441C392.876 732.522 393.324 732.704 393.717 732.975ZM449.909 782.905L532.135 761.701C543.344 758.811 551.305 753.493 555.808 745.872C560.31 738.251 561.119 728.707 558.229 717.498L535.524 629.397C532.634 618.193 527.316 610.227 519.695 605.73C515.768 603.455 511.377 602.097 506.851 601.762C501.622 601.398 496.37 601.919 491.315 603.303L409.077 624.52C403.982 625.748 399.132 627.83 394.731 630.675C390.911 633.13 387.719 636.447 385.411 640.358C383.103 644.27 381.744 648.667 381.441 653.199C381.078 658.427 381.599 663.679 382.983 668.734L405.694 756.835C408.578 768.044 413.901 776.005 421.523 780.501C425.922 783.053 430.89 784.464 435.974 784.605C440.677 784.724 445.372 784.151 449.909 782.905ZM460.936 658.967L462.572 658.545L468.481 681.456L467.895 685.852L460.936 658.967ZM471.981 701.809L472.567 697.413L480.253 727.235L478.617 727.658L471.981 701.809ZM559.493 649.08C559.246 648.717 559.076 648.307 558.991 647.876L544.863 593.056C544.617 592.185 544.712 591.252 545.127 590.447C545.331 590.07 545.612 589.738 545.951 589.475C546.29 589.212 546.68 589.022 547.096 588.917L640.092 564.946C640.52 564.843 640.964 564.829 641.397 564.902C641.83 564.976 642.244 565.136 642.613 565.374C642.983 565.612 643.301 565.922 643.548 566.285C643.795 566.649 643.965 567.059 644.05 567.49L668.42 662.039L692.72 655.778C693.147 655.676 693.591 655.661 694.024 655.735C694.457 655.809 694.871 655.969 695.24 656.207C695.61 656.445 695.928 656.754 696.175 657.118C696.422 657.482 696.592 657.892 696.677 658.322L710.559 712.158C711.046 714.063 710.078 715.845 708.32 716.302L575.195 750.615C574.828 750.713 574.449 750.754 574.07 750.738C573.533 750.721 573.009 750.57 572.545 750.298C572.155 750.06 571.817 749.745 571.55 749.374C571.283 749.003 571.093 748.581 570.992 748.135L557.109 694.294C556.975 693.856 556.934 693.393 556.988 692.937C557.042 692.482 557.19 692.042 557.423 691.646C557.656 691.251 557.97 690.909 558.342 690.641C558.716 690.373 559.14 690.186 559.589 690.091L593.205 681.426L583.825 645.038L562.949 650.42C562.521 650.522 562.077 650.537 561.644 650.463C561.211 650.39 560.797 650.229 560.428 649.992C560.058 649.754 559.74 649.444 559.493 649.08ZM690.92 617.004C692.149 622.098 694.23 626.948 697.075 631.349C699.531 635.169 702.848 638.361 706.758 640.669C710.67 642.977 715.067 644.337 719.599 644.64C724.827 645.002 730.079 644.481 735.134 643.098L777.068 632.287L781.524 649.587L779.888 650.01L776.711 637.698C776.616 637.249 776.429 636.824 776.161 636.451C775.894 636.079 775.551 635.766 775.155 635.532C774.76 635.299 774.32 635.151 773.865 635.097C773.408 635.043 772.946 635.084 772.507 635.219L703.741 652.947C703.292 653.041 702.867 653.229 702.494 653.496C702.121 653.764 701.808 654.106 701.575 654.502C701.341 654.897 701.193 655.337 701.139 655.793C701.085 656.249 701.127 656.711 701.261 657.15L706.942 679.175C709.826 690.378 715.149 698.345 722.77 702.842C727.17 705.394 732.137 706.804 737.221 706.946C741.918 707.073 746.609 706.515 751.145 705.286L833.371 684.088C844.58 681.204 852.542 675.88 857.038 668.259C861.535 660.638 862.355 651.088 859.465 639.885L836.76 551.784C833.87 540.575 828.552 532.614 820.931 528.117C813.31 523.621 803.766 522.8 792.557 525.69L710.324 546.842C705.231 548.073 700.381 550.154 695.979 552.998C692.183 555.481 688.996 558.789 686.658 562.676C682.155 570.298 681.341 579.848 684.231 591.057L690.92 617.004ZM762.184 581.319L763.819 580.897L768.029 597.218L766.387 597.64L762.184 581.319ZM858.199 613.576C857.642 613.104 857.255 612.46 857.108 611.745L849.792 583.359C849.657 582.92 849.61 582.458 849.669 582.001C849.721 581.544 849.868 581.104 850.103 580.708C850.337 580.312 850.648 579.97 851.023 579.703C851.398 579.435 851.82 579.249 852.272 579.156L911.74 563.826C912.157 563.715 912.59 563.692 913.012 563.759C913.435 563.825 913.839 563.98 914.203 564.213C914.953 564.718 915.486 565.488 915.697 566.37L923.014 594.756C923.26 595.628 923.166 596.56 922.75 597.365C922.545 597.743 922.269 598.075 921.929 598.339C921.589 598.602 921.196 598.792 920.78 598.895L861.312 614.225C860.942 614.321 860.561 614.365 860.18 614.354C859.453 614.322 858.756 614.049 858.199 613.576ZM743.494 821.451C743.401 820.988 743.215 820.547 742.948 820.158C742.681 819.768 742.338 819.436 741.94 819.182C741.541 818.927 741.095 818.755 740.629 818.677C740.163 818.599 739.686 818.615 739.226 818.725L714.51 825.097L690.656 848.993L689.747 849.227L737.233 797.216L726.64 756.108C723.75 744.905 718.432 736.938 710.811 732.441C703.19 727.945 693.64 727.112 682.431 730.044L609.995 748.686C598.786 751.576 590.824 756.894 586.328 764.515C584.053 768.443 582.694 772.834 582.353 777.359C581.992 782.588 582.515 787.84 583.901 792.895L589.828 815.9C590.058 816.749 590.595 817.481 591.334 817.957C591.73 818.21 592.175 818.377 592.639 818.45C593.103 818.523 593.577 818.499 594.031 818.38L618.747 812.006L618.993 811.943L642.607 788.111L643.469 787.888L596.247 838.775L615.3 912.682C615.446 913.397 615.828 914.041 616.384 914.513C616.939 914.985 617.638 915.257 618.366 915.285C618.749 915.301 619.132 915.259 619.504 915.162L755.078 880.216C755.527 880.121 755.951 879.933 756.324 879.665C756.696 879.397 757.009 879.055 757.242 878.659C757.475 878.264 757.623 877.825 757.678 877.369C757.732 876.914 757.691 876.452 757.558 876.013L743.494 821.451ZM867.93 691.944C875.552 696.44 880.869 704.407 883.759 715.61L906.458 803.712C909.343 814.921 908.534 824.47 904.031 832.091C899.529 839.712 891.568 845.03 880.365 847.92L798.132 869.113C793.597 870.345 788.906 870.904 784.209 870.772C779.124 870.634 774.155 869.224 769.758 866.668C762.137 862.171 756.819 854.211 753.929 843.002L731.218 754.9C728.334 743.697 729.149 734.147 733.645 726.526C738.142 718.905 746.109 713.588 757.312 710.698L839.55 689.517C850.759 686.633 860.309 687.447 867.93 691.944ZM826.876 813.877L828.517 813.454L820.802 783.633L820.216 788.03L826.876 813.877ZM816.13 772.078L816.716 767.675L810.836 744.764L809.2 745.186L816.13 772.078ZM1047.92 742.982C1047.7 742.068 1047.15 741.265 1046.38 740.725C1045.99 740.454 1045.54 740.271 1045.07 740.19C1044.6 740.109 1044.11 740.132 1043.65 740.256L1018.94 746.628L995.087 770.524L994.172 770.758L1041.34 719.116L1041.68 718.747L1031.08 677.639C1029.85 672.546 1027.76 667.697 1024.92 663.294C1022.44 659.496 1019.13 656.31 1015.24 653.973C1007.61 649.476 998.065 648.655 986.862 651.545L914.42 670.247C903.217 673.137 895.25 678.454 890.753 686.075C888.478 690.001 887.118 694.39 886.784 698.914C886.421 704.142 886.942 709.395 888.326 714.45L894.259 737.454C894.487 738.304 895.021 739.038 895.765 739.511C896.158 739.766 896.604 739.937 897.067 740.01C897.53 740.084 898.005 740.06 898.462 739.939L923.178 733.567L923.424 733.502L947.032 709.672L947.894 709.449L900.678 760.335L919.743 834.225C919.848 834.671 920.036 835.092 920.306 835.463C920.575 835.835 920.909 836.149 921.302 836.388C921.765 836.659 922.287 836.81 922.821 836.828C923.202 836.839 923.577 836.798 923.946 836.705L1059.53 801.759C1059.98 801.664 1060.4 801.478 1060.78 801.21C1061.14 800.942 1061.46 800.599 1061.69 800.204C1061.92 799.808 1062.08 799.369 1062.13 798.913C1062.18 798.457 1062.14 797.995 1062.01 797.556L1047.92 742.982ZM1192.25 706.559L1206.13 760.399C1206.62 762.287 1205.65 764.087 1203.9 764.538L1070.77 798.857C1070.4 798.95 1070.02 798.991 1069.64 798.98C1069.11 798.962 1068.58 798.811 1068.12 798.54C1067.73 798.301 1067.39 797.987 1067.12 797.616C1066.85 797.244 1066.67 796.823 1066.56 796.377L1052.69 742.536C1052.55 742.098 1052.51 741.636 1052.57 741.18C1052.62 740.724 1052.77 740.285 1053 739.89C1053.24 739.495 1053.55 739.153 1053.92 738.884C1054.29 738.616 1054.71 738.429 1055.17 738.334L1088.75 729.657L1079.37 693.268L1058.48 698.656C1058.07 698.766 1057.63 698.787 1057.21 698.72C1056.79 698.652 1056.38 698.497 1056.02 698.263C1055.27 697.76 1054.74 696.992 1054.53 696.112L1040.4 641.292C1040.26 640.874 1040.22 640.433 1040.26 639.995C1040.3 639.558 1040.42 639.133 1040.63 638.747C1040.84 638.36 1041.12 638.02 1041.47 637.746C1041.81 637.472 1042.21 637.27 1042.63 637.153L1135.63 613.182C1136.04 613.071 1136.48 613.049 1136.9 613.115C1137.32 613.182 1137.73 613.336 1138.09 613.569C1138.84 614.074 1139.37 614.845 1139.58 615.726L1163.98 710.281L1188.29 704.02C1188.72 703.917 1189.16 703.902 1189.59 703.974C1190.02 704.047 1190.44 704.207 1190.81 704.445C1191.18 704.682 1191.5 704.992 1191.74 705.355C1191.99 705.718 1192.16 706.128 1192.25 706.559Z" fill="black"/>
</svg>
