<svg width="1440" height="1440" viewBox="0 0 1440 1440" fill="none" xmlns="http://www.w3.org/2000/svg">
<path fill-rule="evenodd" clip-rule="evenodd" d="M0 0H1440V1440H0V0ZM507.995 699.665L518.484 694.535L524.142 700.844C541.537 700.325 558.947 700.992 576.252 702.841L578.509 700.76L585.637 707.175C604.115 706.335 621.274 706.968 636.572 709.063L640.189 705.455C640.245 705.649 640.303 705.845 640.361 706.04C640.448 706.331 640.537 706.623 640.629 706.916L650.568 713.11C670.701 709.639 688.903 707.567 704.685 706.951L712.27 694.341C706.383 682.123 699.889 669.593 692.972 657.102L692.07 655.404L701.2 656.345L710.822 648.509L714.782 610.038L714.663 609.893L723.529 602.682L727.444 564.738L719.595 555.059L717.281 554.821L721.474 514.317L713.625 504.638L568.218 489.635L565.481 482.16L505.645 476L497.616 479.59C494.586 483.865 490.621 487.392 486.022 489.903C482.656 491.742 475.789 494.444 462.171 496.881L455.51 508.708C458.185 515.704 460.144 522.954 461.357 530.345L453.812 536.479L449.901 574.426L457.107 583.292L456.962 583.411L453.002 621.882L460.856 631.539L467.719 632.248C465.25 638.116 462.416 643.823 459.232 649.336C455.559 655.575 449.993 662.355 442.685 669.487L446.935 684.376C466.316 688.661 486.863 693.826 507.995 699.665ZM1006.82 543.989L1000.61 604.072L990.975 611.895L983.078 611.081C984.886 614.94 986.509 618.255 987.953 621.024C990.628 626.169 993.861 631.001 997.601 635.433L996.44 647.95C989.572 653.529 980.389 659.284 968.554 665.408C974.511 671.483 981.036 676.978 988.032 681.819L989.418 695.085C984.393 700.404 979.549 705.882 975.022 711.364C973.207 713.557 971.653 715.436 970.36 716.999C968.935 718.723 967.827 720.063 967.036 721.021L966.284 721.932C960.34 729.592 955.702 735.153 952.108 738.932H939.349C926.691 725.519 915.163 709.133 904.771 689.774C903.236 699.066 900.649 706.528 896.926 712.455C891.757 720.687 882.051 726.292 867.255 729.583C853.937 732.566 834.842 732.702 808.883 730.023L801.122 722.812C800.885 721.492 800.26 719.019 798.614 714.892C798.06 713.525 797.474 712.148 796.855 710.761C782.555 715.416 765.806 719.2 746.918 722.015L737.212 715.895C732.038 699.102 725.438 686.215 717.585 677.618L723.867 662.887C728.103 662.785 732.221 662.651 736.222 662.487C735.172 660.246 733.977 658.075 732.645 655.989C731.36 653.978 729.805 652.153 728.025 650.564L733.745 635.165L736.424 635.121C733.041 626.713 729.644 619.955 726.331 615.023L733.749 601.318C745.791 601.476 756.623 601.309 766.109 600.829L763.377 597.472L764.314 588.58L738.796 585.94L730.942 576.261L737.146 516.178L746.799 508.329L835.079 517.437L843.509 510.586L903.834 516.794L910.689 525.224L998.965 534.332L1006.82 543.989ZM695.665 774.341L613.245 765.837L617.671 722.939L609.822 713.282L545.52 706.647L535.867 714.496L531.441 757.394L449.016 748.889L439.359 756.738L433.731 811.286L441.581 820.943L524.005 829.448L515.012 916.616L522.861 926.269L587.159 932.903L596.816 925.054L605.809 837.887L688.234 846.396L697.887 838.542L703.514 783.994L695.665 774.341ZM974.217 770.113L969.307 817.542L959.649 825.4L958.708 825.304L961.022 828.146L956.697 870.044L949.785 875.667L964.427 877.176L972.276 886.834L967.111 936.898L957.454 944.752L891.106 937.906L889.315 955.241L879.662 963.09L821.929 957.128L814.079 947.475L815.866 930.14L709.727 919.185L701.878 909.532L707.043 859.463L716.722 851.614L730.744 853.061C727.889 840.628 725.047 829.734 722.284 820.653C719.445 811.334 715.841 802.267 711.509 793.542L715.288 781.843C723.498 777.514 730.48 771.086 736.041 762.726C741.651 754.301 745.171 744.269 746.491 732.909L756.21 725.192L815.712 731.862L823.372 742.272C823.157 743.375 822.93 744.495 822.69 745.633L966.367 760.456L974.217 770.113Z" fill="black"/>
</svg>
