<svg width="1440" height="1440" viewBox="0 0 1440 1440" fill="none" xmlns="http://www.w3.org/2000/svg">
<path fill-rule="evenodd" clip-rule="evenodd" d="M1440 0H0V1440H1440V0ZM321.683 731.515L324.439 747.508C327.401 764.646 338.563 772.523 355.701 769.576L419.301 758.609C434.912 755.915 444.368 742.521 441.674 726.904L438.222 706.911C435.232 689.582 424.103 681.896 406.965 684.852L373.639 690.603L371.112 675.94L373.777 675.463L375.518 685.558C375.565 685.797 375.66 686.023 375.798 686.224C375.935 686.424 376.113 686.595 376.319 686.724C376.525 686.854 376.754 686.94 376.995 686.977C377.235 687.014 377.481 687.002 377.716 686.941L431.227 677.704C431.483 677.675 431.73 677.593 431.952 677.461C432.174 677.33 432.366 677.153 432.514 676.942C432.663 676.731 432.766 676.491 432.815 676.238C432.864 675.985 432.859 675.724 432.8 675.473L429.91 658.717C426.949 641.579 415.787 633.702 398.649 636.659L334.668 647.702C317.53 650.658 309.653 661.821 312.609 678.958L316.228 699.906C319.218 717.234 330.347 724.921 347.485 721.964L380.806 716.214L383.238 730.304L380.572 730.781L378.932 721.244C378.885 721.005 378.79 720.778 378.652 720.577C378.514 720.375 378.336 720.205 378.13 720.075C377.924 719.945 377.693 719.859 377.452 719.821C377.211 719.784 376.965 719.796 376.729 719.857L323.223 729.093C322.96 729.144 322.71 729.249 322.488 729.401C322.266 729.552 322.077 729.747 321.933 729.973C321.789 730.2 321.693 730.453 321.65 730.718C321.607 730.984 321.618 731.255 321.683 731.515ZM483.573 621.991L430.254 631.203C429.998 631.233 429.751 631.317 429.529 631.448C429.308 631.58 429.117 631.757 428.968 631.967C428.819 632.178 428.717 632.418 428.667 632.671C428.618 632.923 428.622 633.184 428.68 633.435L449.055 751.48C449.084 751.737 449.166 751.985 449.297 752.208C449.428 752.43 449.605 752.622 449.816 752.772C450.027 752.921 450.267 753.023 450.521 753.073C450.774 753.123 451.036 753.118 451.287 753.059L504.602 743.856C504.859 743.828 505.106 743.745 505.329 743.614C505.552 743.483 505.744 743.306 505.893 743.095C506.042 742.884 506.145 742.644 506.195 742.39C506.244 742.137 506.239 741.876 506.18 741.624L485.805 623.565C485.777 623.308 485.694 623.06 485.563 622.838C485.432 622.616 485.255 622.423 485.044 622.275C484.833 622.126 484.593 622.024 484.339 621.975C484.086 621.926 483.825 621.931 483.573 621.991ZM579.16 605.507L490.426 620.823C490.169 620.85 489.921 620.932 489.697 621.063C489.475 621.194 489.283 621.371 489.134 621.583C488.985 621.794 488.883 622.034 488.834 622.288C488.785 622.542 488.791 622.803 488.852 623.054L509.222 741.114C509.252 741.37 509.335 741.618 509.468 741.84C509.599 742.062 509.776 742.254 509.988 742.402C510.199 742.551 510.439 742.653 510.693 742.702C510.946 742.751 511.207 742.747 511.459 742.688L600.193 727.376C617.33 724.415 625.208 713.253 622.251 696.115L610.421 627.565C607.46 610.428 596.297 602.551 579.16 605.507ZM563.815 699.501L561.15 699.977L551.556 644.402L554.221 643.925L563.815 699.501ZM609.191 602.274L629.566 720.329V720.343C629.596 720.6 629.679 720.847 629.811 721.069C629.943 721.29 630.121 721.482 630.332 721.63C630.543 721.778 630.783 721.88 631.037 721.929C631.29 721.977 631.551 721.971 631.802 721.912L730.25 704.922C730.506 704.893 730.753 704.811 730.975 704.679C731.198 704.548 731.389 704.371 731.538 704.16C731.686 703.949 731.789 703.709 731.838 703.456C731.887 703.203 731.882 702.942 731.823 702.691L724.757 661.75C724.71 661.511 724.615 661.283 724.478 661.082C724.341 660.881 724.164 660.711 723.958 660.58C723.752 660.45 723.521 660.364 723.281 660.326C723.04 660.289 722.794 660.301 722.558 660.362L679.333 667.824L678.856 664.963L722.082 657.501C722.324 657.48 722.559 657.409 722.773 657.293C722.987 657.178 723.175 657.019 723.326 656.828C723.477 656.636 723.586 656.417 723.649 656.182C723.711 655.946 723.725 655.701 723.688 655.46L719.941 633.755C719.912 633.498 719.83 633.25 719.699 633.027C719.568 632.805 719.391 632.613 719.18 632.464C718.969 632.315 718.729 632.212 718.475 632.162C718.222 632.112 717.961 632.118 717.709 632.176L674.484 639.639L674.007 636.973L717.232 629.511C717.489 629.482 717.736 629.399 717.958 629.268C718.18 629.136 718.372 628.959 718.52 628.749C718.669 628.538 718.771 628.298 718.82 628.044C718.87 627.791 718.865 627.53 718.806 627.279L711.443 584.626C711.415 584.37 711.333 584.122 711.202 583.899C711.07 583.676 710.894 583.484 710.683 583.335C710.472 583.186 710.232 583.083 709.978 583.034C709.724 582.984 709.464 582.989 709.212 583.048L610.764 600.038C610.508 600.067 610.26 600.151 610.039 600.283C609.816 600.414 609.625 600.592 609.477 600.803C609.328 601.014 609.226 601.254 609.176 601.508C609.127 601.761 609.132 602.023 609.191 602.274ZM558.794 819.229L561.555 835.222C564.511 852.36 575.674 860.237 592.812 857.29L656.412 846.323C672.028 843.629 681.479 830.234 678.785 814.618L675.333 794.624C672.343 777.296 661.214 769.61 644.076 772.566L610.75 778.317L608.223 763.654L610.888 763.177L612.629 773.262C612.676 773.501 612.771 773.728 612.909 773.928C613.046 774.129 613.223 774.3 613.429 774.43C613.635 774.56 613.865 774.646 614.106 774.684C614.346 774.722 614.591 774.71 614.827 774.65L668.337 765.413C668.594 765.385 668.842 765.303 669.064 765.172C669.287 765.041 669.479 764.864 669.627 764.652C669.776 764.442 669.879 764.201 669.927 763.948C669.976 763.694 669.971 763.433 669.911 763.182L667.021 746.426C664.065 729.288 652.898 721.411 635.76 724.367L571.783 735.406C554.646 738.367 546.764 749.53 549.725 766.668L553.339 787.615C556.329 804.943 567.458 812.63 584.596 809.669L617.922 803.918L620.354 818.013L617.688 818.49L616.043 808.953C615.996 808.714 615.901 808.488 615.764 808.288C615.626 808.087 615.448 807.917 615.243 807.787C615.037 807.658 614.807 807.572 614.566 807.534C614.326 807.497 614.08 807.509 613.845 807.57L560.334 816.802C560.071 816.855 559.821 816.96 559.6 817.112C559.378 817.264 559.189 817.459 559.045 817.686C558.901 817.913 558.805 818.167 558.762 818.432C558.719 818.697 558.73 818.968 558.794 819.229ZM764.935 747.966L757.572 705.313C757.541 705.059 757.456 704.813 757.324 704.594C757.191 704.374 757.014 704.185 756.804 704.038C756.593 703.891 756.354 703.791 756.102 703.742C755.85 703.694 755.591 703.7 755.341 703.759L667.37 718.941C667.113 718.969 666.865 719.052 666.642 719.183C666.42 719.314 666.227 719.491 666.078 719.702C665.929 719.913 665.826 720.153 665.777 720.406C665.727 720.66 665.733 720.921 665.791 721.173L673.149 763.802C673.177 764.059 673.259 764.307 673.391 764.529C673.522 764.752 673.699 764.944 673.91 765.093C674.121 765.242 674.36 765.345 674.614 765.394C674.868 765.444 675.129 765.439 675.38 765.38L690.806 762.719L703.49 836.219C703.517 836.476 703.599 836.724 703.73 836.947C703.861 837.169 704.038 837.362 704.249 837.511C704.461 837.66 704.701 837.762 704.955 837.81C705.209 837.859 705.47 837.853 705.721 837.792L759.227 828.561C759.466 828.514 759.692 828.419 759.893 828.281C760.094 828.143 760.265 827.967 760.394 827.761C760.524 827.555 760.611 827.325 760.649 827.084C760.687 826.844 760.675 826.599 760.615 826.362L747.935 752.858L763.356 750.198C763.613 750.169 763.861 750.087 764.084 749.956C764.306 749.825 764.498 749.648 764.648 749.437C764.797 749.226 764.899 748.986 764.949 748.732C764.999 748.479 764.994 748.218 764.935 747.966ZM786.945 698.28C769.808 701.241 761.931 712.404 764.887 729.541L776.717 798.091C779.674 815.228 790.841 823.106 807.979 820.149L871.956 809.106C889.093 806.149 896.97 794.987 894.014 777.849L882.184 709.299C879.227 692.162 868.065 684.285 850.927 687.241L786.945 698.28ZM835.516 780.868L832.85 781.344L823.385 726.508L826.051 726.032L835.516 780.868ZM1010.87 736.899L995.98 726.723C1003.09 721.373 1006.93 714.049 1005.05 703.206L1002.53 688.543C999.566 671.405 988.403 663.528 971.266 666.484L882.532 681.8C882.274 681.829 882.026 681.911 881.807 682.042C881.583 682.173 881.392 682.35 881.24 682.561C881.092 682.773 880.992 683.013 880.944 683.266C880.891 683.52 880.896 683.781 880.958 684.032L901.329 802.092C901.357 802.349 901.438 802.596 901.572 802.819C901.705 803.041 901.882 803.233 902.091 803.382C902.306 803.531 902.544 803.633 902.797 803.681C903.05 803.73 903.312 803.725 903.565 803.665L957.071 794.419C957.328 794.391 957.576 794.309 957.795 794.178C958.019 794.046 958.21 793.87 958.363 793.658C958.511 793.448 958.611 793.207 958.658 792.954C958.711 792.7 958.706 792.439 958.644 792.188L951.811 752.577L955.001 755.166L961.31 791.725C961.338 791.982 961.419 792.23 961.553 792.453C961.686 792.676 961.863 792.867 962.073 793.016C962.282 793.166 962.526 793.268 962.778 793.318C963.031 793.367 963.293 793.363 963.546 793.304L1017.05 784.067C1017.31 784.039 1017.56 783.957 1017.78 783.826C1018 783.694 1018.19 783.517 1018.34 783.306C1018.49 783.095 1018.59 782.855 1018.64 782.601C1018.69 782.348 1018.69 782.087 1018.63 781.836L1010.87 736.899ZM943.724 705.742L946.389 705.266L949.727 724.687L947.062 725.164L943.724 705.742ZM1047.63 752.115L1051.77 776.109L1051.76 776.118C1051.78 776.376 1051.87 776.624 1052 776.846C1052.13 777.069 1052.31 777.26 1052.52 777.409C1052.74 777.557 1052.98 777.658 1053.23 777.705C1053.49 777.752 1053.75 777.744 1054 777.682L1107.51 768.451C1107.75 768.404 1107.98 768.308 1108.18 768.17C1108.38 768.032 1108.55 767.854 1108.68 767.648C1108.81 767.441 1108.89 767.211 1108.93 766.97C1108.97 766.729 1108.96 766.483 1108.89 766.248L1104.76 742.258L1128.56 700.697L1118.61 643C1118.58 642.744 1118.5 642.496 1118.36 642.273C1118.24 642.051 1118.06 641.858 1117.84 641.709C1117.64 641.56 1117.4 641.457 1117.14 641.408C1116.89 641.359 1116.63 641.363 1116.38 641.422L1062.87 650.658C1062.61 650.687 1062.36 650.77 1062.14 650.902C1061.92 651.033 1061.73 651.21 1061.58 651.421C1061.43 651.632 1061.33 651.871 1061.28 652.125C1061.23 652.378 1061.24 652.639 1061.29 652.89L1068.72 695.924L1067.72 698.061L1066.05 696.387L1058.63 653.352C1058.6 653.096 1058.52 652.848 1058.38 652.625C1058.25 652.403 1058.08 652.21 1057.86 652.061C1057.65 651.912 1057.42 651.809 1057.16 651.76C1056.91 651.711 1056.65 651.716 1056.4 651.774L1002.88 661.01C1002.63 661.04 1002.38 661.122 1002.16 661.254C1001.94 661.385 1001.75 661.562 1001.6 661.773C1001.45 661.984 1001.34 662.224 1001.3 662.477C1001.25 662.73 1001.25 662.991 1001.31 663.242L1011.27 720.939L1047.63 752.115Z" fill="black"/>
</svg>
