<svg width="1228" height="964" viewBox="0 0 1228 964" fill="none" xmlns="http://www.w3.org/2000/svg">
<g clip-path="url(#clip0_8_30)">
<path d="M44.9499 255.99L277.09 350.26C277.908 350.597 278.785 350.77 279.67 350.77C280.422 350.771 281.167 350.621 281.86 350.33C282.607 349.996 283.28 349.517 283.841 348.922C284.402 348.326 284.84 347.625 285.13 346.86L323.08 253.42C323.727 251.869 323.794 250.137 323.27 248.54C322.993 247.73 322.544 246.99 321.954 246.37C321.363 245.75 320.646 245.266 319.85 244.95L277.53 227.77L217.77 236.69L216.21 236.06L339.05 212.06L339.93 211.88L368.51 141.5C376.3 122.31 377.13 105.18 370.97 90.5901C364.81 76.0001 351.97 64.6501 332.76 56.8601L208.76 6.49022C189.57 -1.29978 172.44 -2.12973 157.85 4.04027C143.26 10.2103 131.91 23.0402 124.12 42.2402L108.12 81.6301C107.55 83.0966 107.55 84.7237 108.12 86.1902C108.418 86.9781 108.877 87.6953 109.468 88.2961C110.058 88.897 110.767 89.3683 111.55 89.6802L153.81 106.93L154.24 107.1L213.58 98.0102L215.05 98.6101L93.8199 121.23L92.9399 121.4L41.5499 247.93C41.2166 248.675 41.0407 249.481 41.033 250.296C41.0253 251.112 41.186 251.921 41.5051 252.672C41.8243 253.423 42.2949 254.099 42.8877 254.66C43.4804 255.221 44.1825 255.653 44.9499 255.93V255.99Z" fill="black"/>
<path d="M312.62 346.47C318.79 361.06 331.62 372.41 350.83 380.2L491.62 437.38C502.49 441.79 512.69 443.97 522.15 443.91C529.147 443.921 536.076 442.533 542.53 439.83C557.12 433.67 568.47 420.83 576.26 401.63L637.52 250.78C645.31 231.59 646.14 214.46 639.98 199.87C633.82 185.28 620.98 173.93 601.77 166.14L460.98 108.93C441.79 101.13 424.66 100.31 410.07 106.47C395.48 112.63 384.13 125.47 376.34 144.67L315.08 295.52C307.29 314.75 306.46 331.93 312.62 346.47ZM480.08 259.83L498.78 213.83L501.58 214.97L485.65 254.2L480.08 259.83ZM451.02 331.41L469.02 287.15L474.59 281.48L453.85 332.55L451.02 331.41Z" fill="black"/>
<path d="M654.54 310.24L690.3 324.76L665 387.06L607.45 363.69C606.705 363.355 605.9 363.178 605.083 363.169C604.267 363.161 603.458 363.321 602.706 363.641C601.955 363.96 601.278 364.431 600.718 365.025C600.157 365.618 599.726 366.321 599.45 367.09L562.02 459.28C561.683 460.024 561.504 460.829 561.495 461.645C561.485 462.461 561.644 463.271 561.963 464.022C562.281 464.774 562.752 465.452 563.345 466.012C563.938 466.573 564.641 467.005 565.41 467.28L793.41 559.85C794.096 560.127 794.83 560.27 795.57 560.27C796.779 560.232 797.948 559.83 798.924 559.116C799.9 558.402 800.637 557.41 801.04 556.27L838.47 464.09C839.116 462.599 839.169 460.919 838.62 459.39C838.351 458.671 837.934 458.017 837.397 457.469C836.86 456.921 836.213 456.492 835.5 456.21L793.87 439.31L859.61 277.42C860.93 274.16 859.61 270.77 856.61 269.54L697.3 204.93C696.59 204.636 695.827 204.494 695.059 204.511C694.292 204.528 693.536 204.705 692.84 205.03C691.387 205.75 690.256 206.988 689.67 208.5L651.56 302.36C650.914 303.847 650.86 305.525 651.41 307.05C651.68 307.771 652.099 308.426 652.638 308.976C653.177 309.525 653.825 309.956 654.54 310.24Z" fill="black"/>
<path d="M1050.98 471.07L1001.81 451.07L1002.95 448.27L1107.01 490.52C1109.93 491.71 1113.43 489.92 1114.81 486.52L1151.56 396.01C1152.89 392.75 1151.56 389.36 1148.56 388.13L922.28 296.25C921.536 295.912 920.731 295.732 919.914 295.721C919.097 295.711 918.287 295.87 917.535 296.188C916.783 296.507 916.106 296.978 915.545 297.573C914.985 298.167 914.554 298.871 914.28 299.64L851.49 454.26C851.145 455.007 850.96 455.817 850.947 456.64C850.933 457.462 851.092 458.278 851.412 459.036C851.732 459.794 852.206 460.476 852.805 461.04C853.404 461.604 854.114 462.036 854.89 462.31L948.89 500.48L947.75 503.29L853.75 465.11C850.49 463.79 846.95 465.43 845.53 468.93L808.78 559.44C808.442 560.184 808.262 560.99 808.252 561.807C808.242 562.625 808.402 563.435 808.722 564.187C809.042 564.939 809.514 565.617 810.109 566.177C810.705 566.736 811.41 567.167 812.18 567.44L982.72 636.7C991.233 640.209 1000.35 642.01 1009.56 642C1017.77 641.973 1025.9 640.321 1033.47 637.14C1049.17 630.51 1061.62 617.48 1068.54 600.45L1086.74 555.61C1102.5 516.93 1089.8 486.84 1050.98 471.07Z" fill="black"/>
<path d="M1224.34 547.82L1122.52 506.47C1121.78 506.135 1120.97 505.958 1120.15 505.95C1119.34 505.941 1118.53 506.102 1117.78 506.421C1117.03 506.74 1116.35 507.211 1115.79 507.805C1115.23 508.399 1114.8 509.102 1114.52 509.87L1094.78 558.47C1094.45 559.223 1094.28 560.033 1094.27 560.853C1094.26 561.673 1094.41 562.488 1094.71 563.25C1095.04 563.998 1095.52 564.672 1096.12 565.233C1096.71 565.795 1097.41 566.232 1098.18 566.52L1200 607.87C1200.69 608.148 1201.42 608.291 1202.16 608.29C1203.37 608.252 1204.54 607.85 1205.51 607.136C1206.49 606.422 1207.23 605.43 1207.63 604.29L1227.37 555.68C1228.64 552.43 1227.36 549.05 1224.34 547.82Z" fill="black"/>
<path d="M282.24 558.93C281.963 558.119 281.513 557.378 280.92 556.758C280.328 556.138 279.608 555.654 278.81 555.34L236.49 538.15L176.73 547.08L175.17 546.44L298.01 522.44L298.89 522.27L327.47 451.93C335.27 432.74 336.09 415.62 329.93 401.03C323.77 386.44 310.93 375.09 291.72 367.29L167.72 316.93C148.53 309.13 131.4 308.31 116.81 314.47C102.22 320.63 90.8701 333.47 83.0801 352.68L67.0801 392.07C66.5097 393.537 66.5097 395.164 67.0801 396.63C67.3806 397.416 67.8405 398.13 68.4308 398.729C69.0211 399.328 69.7291 399.798 70.5102 400.11L112.83 417.3L113.25 417.47L172.59 408.37L174.07 408.97L52.8401 431.63L51.9502 431.79L0.56014 558.34C0.226894 559.085 0.0509326 559.891 0.0432329 560.706C0.0355331 561.522 0.196271 562.331 0.515401 563.082C0.834531 563.833 1.30518 564.51 1.89791 565.07C2.49064 565.631 3.19265 566.063 3.9601 566.34L236.1 660.6C236.918 660.939 237.795 661.116 238.68 661.12C239.432 661.116 240.175 660.967 240.87 660.68C241.617 660.346 242.29 659.867 242.851 659.272C243.413 658.676 243.851 657.976 244.14 657.21L282.14 563.76C282.754 562.215 282.79 560.5 282.24 558.93Z" fill="black"/>
<path d="M596.48 561.2C604.28 542.01 605.1 524.89 598.94 510.3C592.78 495.71 579.94 484.36 560.73 476.56L419.94 419.39C400.75 411.6 383.62 410.77 369.03 416.93C354.44 423.09 343.09 435.93 335.3 455.14L274.04 605.99C266.25 625.18 265.43 642.31 271.59 656.9C277.75 671.49 290.59 682.84 309.79 690.63L450.59 747.8C461.45 752.22 471.65 754.39 481.11 754.34C488.106 754.341 495.033 752.955 501.49 750.26C516.08 744.1 527.43 731.26 535.23 712.05L596.48 561.2ZM433.48 591.91L412.78 642.93L409.98 641.8L427.98 597.54L433.48 591.91ZM460.48 525.36L444.55 564.59L438.98 570.26L457.67 524.26L460.48 525.36Z" fill="black"/>
<path d="M797.49 769.87C797.217 769.152 796.798 768.498 796.259 767.951C795.72 767.403 795.074 766.974 794.36 766.69L752.73 749.78L818.47 587.93C819.8 584.67 818.47 581.29 815.47 580.06L656.24 515.4C655.531 515.104 654.768 514.96 653.999 514.977C653.231 514.995 652.475 515.173 651.78 515.5C650.323 516.211 649.192 517.453 648.62 518.97L610.5 612.83C609.864 614.319 609.81 615.993 610.35 617.52C610.623 618.238 611.042 618.891 611.581 619.439C612.119 619.986 612.766 620.416 613.48 620.7L649.24 635.22L623.94 697.53L566.39 674.16C565.645 673.827 564.84 673.651 564.024 673.643C563.208 673.635 562.399 673.796 561.648 674.115C560.898 674.434 560.221 674.905 559.66 675.498C559.099 676.09 558.667 676.792 558.39 677.56L520.96 769.74C520.615 770.487 520.43 771.297 520.417 772.12C520.403 772.942 520.562 773.758 520.882 774.516C521.202 775.274 521.676 775.956 522.275 776.52C522.874 777.084 523.584 777.516 524.36 777.79L752.31 870.36C752.997 870.637 753.73 870.779 754.47 870.78C755.266 870.771 756.05 870.59 756.77 870.25C758.224 869.539 759.354 868.302 759.93 866.79L797.37 774.6C798.007 773.095 798.05 771.405 797.49 769.87Z" fill="black"/>
<path d="M1076.54 686.02L935.75 628.85C916.56 621.06 899.43 620.23 884.84 626.4C870.25 632.57 858.9 645.4 851.11 664.6L839.71 692.68C831.71 712.29 834.25 731.04 847.13 748.46C825.13 752.75 810.13 765.46 801.25 787.38L789.85 815.45C782.06 834.64 781.23 851.77 787.4 866.36C793.57 880.95 806.4 892.3 825.6 900.09L966.4 957.26C977.26 961.68 987.46 963.86 996.92 963.8C1003.92 963.801 1010.84 962.414 1017.3 959.72C1031.89 953.56 1043.24 940.72 1051.03 921.51L1062.44 893.44C1071.32 871.57 1069.44 851.95 1056.68 833.55C1078.06 830.05 1092.93 818.35 1100.89 798.74L1112.29 770.66C1120.08 751.48 1120.91 734.35 1114.75 719.76C1108.59 705.17 1095.73 693.82 1076.54 686.02ZM976.35 734.82L965.35 761.93L962.54 760.79L973.54 733.68L976.35 734.82ZM939.6 825.33L928.6 852.44L925.8 851.3L936.8 824.19L939.6 825.33Z" fill="black"/>
</g>
<defs>
<clipPath id="clip0_8_30">
<rect width="1227.84" height="963.8" fill="white"/>
</clipPath>
</defs>
</svg>
