<svg width="1307" height="911" viewBox="0 0 1307 911" fill="none" xmlns="http://www.w3.org/2000/svg">
<g clip-path="url(#clip0_8_20)">
<path d="M334.86 604.4C335.584 604.059 336.23 603.57 336.754 602.965C337.279 602.361 337.672 601.653 337.907 600.887C338.142 600.122 338.215 599.316 338.121 598.521C338.027 597.726 337.768 596.959 337.36 596.27L291.43 509.54C289.71 506.29 286.13 505.05 283.1 506.65L244.21 527.25L243.59 527.83L213.1 577.59L211.65 578.35L270.65 471.79V470.26L236.44 405.7C227.01 387.89 214.76 376.56 200.02 372.03C185.28 367.5 168.79 370.03 151.02 379.42L35.8899 440.42C18.0799 449.86 6.7499 462.11 2.2199 476.84C-0.0387847 484.413 -0.558368 492.398 0.699906 500.2C2.20218 509.201 5.21458 517.883 9.60991 525.88L28.9699 562.44C29.6939 563.791 30.9009 564.82 32.3499 565.32C33.1231 565.589 33.9438 565.694 34.7599 565.629C35.5759 565.563 36.3694 565.329 37.0899 564.94L76.3699 544.14L76.9999 543.55L107.1 494.01L108.47 493.28L49.4999 597.78V599.32L111.29 716C111.648 716.707 112.142 717.336 112.745 717.851C113.347 718.366 114.046 718.756 114.8 719C115.706 719.27 116.664 719.311 117.59 719.12C118.226 718.993 118.84 718.77 119.41 718.46L334.88 604.36L334.86 604.4Z" fill="black"/>
<path d="M317.85 541.86C327.28 559.68 339.54 571 354.27 575.53C362.868 578.091 371.973 578.435 380.74 576.53C388.627 574.836 396.228 572.014 403.31 568.15L534 498.95C542.129 494.798 549.499 489.304 555.8 482.7C561.224 476.956 565.282 470.062 567.67 462.53C572.2 447.8 569.67 431.29 560.28 413.53L486.13 273.53C476.7 255.71 464.45 244.39 449.72 239.85C434.99 235.31 418.48 237.85 400.67 247.24L269.99 316.44C252.18 325.88 240.85 338.13 236.32 352.86C231.79 367.59 234.32 384.09 243.71 401.91L317.85 541.86ZM371.8 353.77L374.4 352.39L393.68 388.8L394.43 396.5L371.8 353.77ZM407.8 421.86L407.06 414.16L432.16 461.56L429.56 462.94L407.8 421.86Z" fill="black"/>
<path d="M533.37 295.26C534.08 296.672 535.298 297.762 536.78 298.31C537.486 298.557 538.235 298.655 538.981 298.596C539.727 298.538 540.452 298.324 541.11 297.97L574.3 280.39L604.92 338.22L551.51 366.51C550.786 366.85 550.141 367.337 549.616 367.941C549.092 368.545 548.699 369.252 548.464 370.017C548.228 370.781 548.155 371.587 548.249 372.381C548.343 373.175 548.603 373.941 549.01 374.63L594.32 460.2C595.048 461.625 596.31 462.703 597.83 463.2C598.736 463.47 599.695 463.512 600.62 463.32C601.254 463.185 601.867 462.963 602.44 462.66L814.03 350.7C814.7 350.331 815.288 349.83 815.76 349.228C816.231 348.625 816.575 347.934 816.773 347.195C816.97 346.456 817.015 345.685 816.907 344.928C816.798 344.171 816.537 343.444 816.14 342.79L770.8 257.17C770.084 255.778 768.87 254.707 767.4 254.17C766.693 253.926 765.944 253.832 765.198 253.892C764.453 253.952 763.729 254.166 763.07 254.52L724.43 274.98L644.88 124.7C644.162 123.306 642.944 122.234 641.47 121.7C640.764 121.452 640.015 121.355 639.269 121.413C638.524 121.472 637.799 121.685 637.14 122.04L489.34 200.3C486.54 201.79 485.63 205.19 487.24 208.22L533.37 295.26Z" fill="black"/>
<path d="M762.45 173.95C763.163 175.359 764.38 176.448 765.86 177C766.566 177.247 767.315 177.345 768.061 177.286C768.806 177.228 769.532 177.014 770.19 176.66L803.38 159.08L834.01 216.91L780.59 245.2C779.867 245.541 779.223 246.029 778.699 246.633C778.175 247.237 777.783 247.944 777.548 248.708C777.313 249.472 777.24 250.277 777.333 251.071C777.426 251.865 777.684 252.631 778.09 253.32L823.4 338.89C823.942 340.046 824.857 340.986 825.998 341.559C827.139 342.132 828.439 342.305 829.69 342.05C830.329 341.921 830.946 341.699 831.52 341.39L1043.11 229.34C1043.77 228.995 1044.36 228.516 1044.82 227.932C1045.29 227.348 1045.63 226.673 1045.82 225.95C1046.2 224.421 1045.98 222.807 1045.22 221.43L999.9 135.86C999.583 135.163 999.129 134.537 998.564 134.021C997.999 133.504 997.336 133.108 996.614 132.854C995.891 132.601 995.125 132.497 994.362 132.548C993.598 132.598 992.852 132.803 992.17 133.15L953.53 153.62L873.96 3.34976C873.242 1.95568 872.024 0.884182 870.55 0.349761C869.844 0.10238 869.095 0.00484312 868.349 0.0633845C867.604 0.121926 866.878 0.335348 866.22 0.689849L718.43 78.9499C717.766 79.2952 717.181 79.7749 716.713 80.3586C716.245 80.9422 715.903 81.6168 715.71 82.3398C715.332 83.8725 715.55 85.4916 716.32 86.8698L762.45 173.95Z" fill="black"/>
<path d="M1003.05 124.23C1003.78 125.655 1005.04 126.733 1006.56 127.23C1007.47 127.5 1008.42 127.542 1009.35 127.35C1009.99 127.224 1010.6 127.002 1011.17 126.69L1105.68 76.64C1106.34 76.2957 1106.93 75.8163 1107.4 75.2325C1107.87 74.6487 1108.21 73.9735 1108.4 73.2501C1108.78 71.7183 1108.56 70.1012 1107.8 68.7201L1083.9 23.7001C1083.18 22.3085 1081.97 21.2375 1080.5 20.7001C1079.79 20.4521 1079.04 20.3542 1078.3 20.4127C1077.55 20.4713 1076.83 20.6851 1076.17 21.0402L981.66 71.09C980.937 71.4322 980.292 71.9215 979.769 72.5265C979.245 73.1315 978.853 73.839 978.617 74.6039C978.382 75.3688 978.309 76.1743 978.402 76.9691C978.496 77.7639 978.754 78.5305 979.16 79.2201L1003.05 124.23Z" fill="black"/>
<path d="M555.13 701.26C553.41 698.01 549.83 696.77 546.8 698.37L507.91 718.97L507.29 719.55L476.8 769.3L475.35 770.07L534.35 663.5V661.97L500.16 597.41C490.73 579.6 478.48 568.27 463.74 563.74C449 559.21 432.51 561.74 414.74 571.12L299.61 632.12C281.8 641.55 270.47 653.81 265.94 668.54C261.41 683.27 263.94 699.77 273.33 717.54L292.69 754.1C293.414 755.451 294.621 756.48 296.07 756.98C296.843 757.249 297.664 757.354 298.48 757.289C299.296 757.223 300.09 756.989 300.81 756.6L340.1 735.8L340.72 735.21L370.8 685.7L372.17 684.98L313.2 789.49V791.04L374.97 907.7C375.512 908.856 376.427 909.796 377.568 910.37C378.709 910.943 380.009 911.115 381.26 910.86C381.899 910.73 382.515 910.508 383.09 910.2L598.56 796.09C599.283 795.749 599.927 795.261 600.451 794.657C600.975 794.053 601.367 793.346 601.602 792.582C601.837 791.818 601.91 791.013 601.817 790.219C601.724 789.425 601.466 788.659 601.06 787.97L555.13 701.26Z" fill="black"/>
<path d="M749.8 465.18C740.36 447.37 728.11 436.04 713.38 431.51C698.65 426.98 682.15 429.51 664.38 438.9L533.7 508.1C515.89 517.53 504.56 529.79 500.03 544.52C495.5 559.25 497.98 575.75 507.42 593.52L581.56 733.52C591 751.33 603.25 762.66 617.98 767.19C626.578 769.75 635.684 770.094 644.45 768.19C652.337 766.496 659.938 763.673 667.02 759.81L797.7 690.7C815.51 681.27 826.84 669.02 831.37 654.28C835.9 639.54 833.37 623.05 823.98 605.28L749.8 465.18ZM695.86 653.28L693.26 654.66L671.5 613.58L670.76 605.88L695.86 653.28ZM657.33 580.52L658.08 588.22L635.45 545.49L638.05 544.11L657.33 580.52Z" fill="black"/>
<path d="M1034.52 448.89C1033.81 447.48 1032.6 446.39 1031.12 445.84C1030.41 445.592 1029.66 445.494 1028.92 445.553C1028.17 445.611 1027.45 445.825 1026.79 446.18L988.15 466.64L908.58 316.38C907.858 314.99 906.641 313.92 905.17 313.38C904.464 313.134 903.714 313.038 902.968 313.099C902.223 313.159 901.498 313.374 900.84 313.73L753.05 391.99C752.385 392.334 751.8 392.814 751.332 393.398C750.863 393.981 750.522 394.657 750.33 395.38C749.952 396.913 750.17 398.532 750.94 399.91L797.07 487.03C797.793 488.421 799.009 489.491 800.48 490.03C801.184 490.278 801.931 490.376 802.675 490.319C803.418 490.262 804.142 490.052 804.8 489.7L837.99 472.12L868.62 529.95L815.2 558.24C814.477 558.581 813.833 559.069 813.309 559.673C812.785 560.278 812.393 560.984 812.158 561.748C811.923 562.513 811.85 563.317 811.943 564.111C812.036 564.906 812.294 565.671 812.7 566.36L858.01 651.93C858.552 653.086 859.467 654.026 860.608 654.6C861.749 655.173 863.049 655.345 864.3 655.09C864.939 654.961 865.556 654.739 866.13 654.43L1077.72 542.43C1078.38 542.084 1078.97 541.604 1079.43 541.02C1079.9 540.437 1080.24 539.762 1080.43 539.04C1080.81 537.508 1080.59 535.891 1079.83 534.51L1034.52 448.89Z" fill="black"/>
<path d="M1305.42 415L1280.22 367.41L1289.69 362.41C1292.49 360.92 1293.4 357.52 1291.8 354.49L1259.67 293.82C1258.96 292.408 1257.74 291.318 1256.26 290.77C1255.55 290.522 1254.8 290.424 1254.06 290.483C1253.31 290.541 1252.59 290.755 1251.93 291.11L1242.46 296.11L1177.72 173.85C1177 172.456 1175.78 171.384 1174.31 170.85C1173.6 170.602 1172.85 170.505 1172.11 170.563C1171.36 170.622 1170.64 170.835 1169.98 171.19L1060.69 229.07C1059.97 229.41 1059.33 229.897 1058.8 230.499C1058.28 231.101 1057.89 231.806 1057.65 232.568C1057.42 233.329 1057.34 234.132 1057.43 234.924C1057.52 235.717 1057.78 236.481 1058.18 237.17L1121.4 360.26L1119.56 361.26L1054.8 238.94C1054.08 237.548 1052.87 236.477 1051.4 235.94C1050.69 235.694 1049.94 235.598 1049.2 235.656C1048.45 235.715 1047.73 235.927 1047.07 236.28L961.89 281.39C961.167 281.731 960.523 282.219 959.999 282.823C959.475 283.427 959.083 284.134 958.848 284.898C958.613 285.662 958.539 286.467 958.633 287.261C958.726 288.055 958.984 288.821 959.39 289.51L1059.09 477.7C1059.43 478.423 1059.92 479.067 1060.52 479.591C1061.13 480.115 1061.83 480.507 1062.6 480.742C1063.36 480.977 1064.17 481.05 1064.96 480.957C1065.76 480.864 1066.52 480.606 1067.21 480.2L1160.69 430.7L1185.89 478.28C1186.62 479.705 1187.88 480.783 1189.4 481.28C1190.31 481.55 1191.26 481.591 1192.19 481.4C1192.83 481.264 1193.44 481.042 1194.02 480.74L1303.31 422.86C1303.97 422.516 1304.55 422.038 1305.02 421.456C1305.49 420.874 1305.83 420.201 1306.02 419.48C1306.38 417.964 1306.17 416.367 1305.42 415Z" fill="black"/>
</g>
<defs>
<clipPath id="clip0_8_20">
<rect width="1306.21" height="911" fill="white"/>
</clipPath>
</defs>
</svg>
