<svg width="1440" height="1440" viewBox="0 0 1440 1440" fill="none" xmlns="http://www.w3.org/2000/svg">
<path fill-rule="evenodd" clip-rule="evenodd" d="M1440 0H0V1440H1440V0ZM550.212 798.678C549.932 799.002 549.586 799.263 549.199 799.446L549.209 799.425L433.891 860.49C433.586 860.656 433.258 860.775 432.917 860.843C432.422 860.946 431.909 860.924 431.424 860.779C431.02 860.649 430.646 860.44 430.324 860.164C430.001 859.889 429.737 859.552 429.546 859.174L396.476 796.727V795.903L428.036 739.975L427.303 740.366L411.194 766.879L410.856 767.195L389.834 778.327C389.448 778.535 389.024 778.661 388.587 778.696C388.15 778.731 387.711 778.675 387.297 778.531C386.522 778.263 385.876 777.712 385.488 776.989L375.127 757.423C372.775 753.143 371.162 748.496 370.358 743.679C369.685 739.503 369.963 735.23 371.172 731.177C373.596 723.293 379.66 716.737 389.192 711.685L450.809 679.038C460.319 674.013 469.144 672.659 477.033 675.083C484.922 677.507 491.478 683.571 496.525 693.103L514.834 727.655V728.474L483.258 785.504L484.034 785.097L500.352 758.466L500.683 758.156L521.497 747.131C523.119 746.274 525.035 746.938 525.955 748.677L550.537 795.095C550.755 795.464 550.894 795.874 550.944 796.3C550.994 796.725 550.955 797.156 550.829 797.566C550.704 797.976 550.493 798.355 550.212 798.678ZM540.095 765.975C545.142 775.512 551.703 781.57 559.587 783.995C564.188 785.366 569.061 785.55 573.753 784.53C577.974 783.623 582.042 782.113 585.833 780.045L655.777 743.01C660.128 740.788 664.072 737.847 667.444 734.313C670.347 731.239 672.519 727.549 673.797 723.518C676.222 715.635 674.868 706.799 669.842 697.294L630.157 622.366C625.111 612.829 618.554 606.771 610.671 604.341C602.788 601.911 593.952 603.271 584.42 608.296L514.481 645.332C504.949 650.384 498.885 656.94 496.461 664.823C494.036 672.707 495.39 681.537 500.416 691.075L540.095 765.975ZM568.969 665.31L570.36 664.572L580.679 684.058L581.08 688.179L568.969 665.31ZM588.236 701.752L587.84 697.631L601.273 722.999L599.882 723.737L588.236 701.752ZM657.265 635.629C656.472 635.335 655.82 634.752 655.44 633.996L630.751 587.413C629.89 585.791 630.377 583.972 631.875 583.174L710.977 541.29C711.33 541.1 711.718 540.986 712.116 540.954C712.516 540.923 712.917 540.975 713.294 541.108C714.083 541.394 714.735 541.968 715.119 542.714L757.694 623.143L778.374 612.192C778.727 612.003 779.114 611.888 779.513 611.856C779.912 611.824 780.313 611.875 780.691 612.005C781.478 612.292 782.128 612.866 782.511 613.611L806.777 659.434C806.989 659.784 807.129 660.173 807.187 660.578C807.245 660.983 807.221 661.396 807.115 661.792C807.01 662.187 806.825 662.557 806.573 662.88C806.321 663.202 806.006 663.47 805.647 663.667L692.406 723.588C692.099 723.75 691.771 723.869 691.432 723.941C690.937 724.044 690.423 724.021 689.939 723.877C689.125 723.611 688.45 723.034 688.06 722.271L663.81 676.475C663.593 676.106 663.453 675.696 663.403 675.271C663.353 674.846 663.392 674.415 663.518 674.006C663.644 673.596 663.854 673.218 664.135 672.895C664.416 672.571 664.761 672.311 665.148 672.129L693.733 656.988L677.345 626.038L659.582 635.447C659.23 635.636 658.842 635.751 658.443 635.782C658.044 635.813 657.643 635.761 657.265 635.629ZM778.042 569.072C778.424 569.826 779.075 570.409 779.867 570.704C780.245 570.836 780.646 570.889 781.045 570.857C781.444 570.826 781.832 570.712 782.185 570.522L799.948 561.114L816.341 592.064L787.751 607.204C787.364 607.387 787.019 607.648 786.739 607.971C786.458 608.295 786.248 608.673 786.123 609.082C785.997 609.491 785.958 609.922 786.008 610.346C786.057 610.771 786.195 611.181 786.413 611.55L810.662 657.347C810.952 657.965 811.442 658.468 812.053 658.775C812.663 659.082 813.359 659.174 814.029 659.038C814.371 658.969 814.701 658.85 815.008 658.685L928.25 598.716C928.603 598.532 928.919 598.275 929.165 597.963C929.416 597.65 929.598 597.289 929.7 596.902C929.903 596.084 929.786 595.22 929.379 594.483L905.124 548.686C904.954 548.313 904.711 547.978 904.409 547.702C904.107 547.425 903.752 547.214 903.365 547.078C902.978 546.942 902.568 546.886 902.16 546.914C901.751 546.941 901.352 547.05 900.987 547.236L880.307 558.191L837.722 477.768C837.337 477.022 836.685 476.448 835.897 476.162C835.519 476.03 835.118 475.978 834.719 476.009C834.32 476.04 833.931 476.154 833.579 476.344L754.483 518.228C754.128 518.413 753.815 518.67 753.564 518.982C753.314 519.295 753.131 519.656 753.027 520.043C752.825 520.863 752.942 521.729 753.354 522.467L778.042 569.072ZM908.688 544.068C907.875 543.802 907.2 543.225 906.81 542.462L894.024 518.373C893.807 518.004 893.669 517.594 893.618 517.168C893.569 516.743 893.608 516.312 893.733 515.902C893.86 515.493 894.069 515.114 894.35 514.791C894.63 514.467 894.975 514.205 895.362 514.022L945.943 487.236C946.296 487.045 946.682 486.931 947.083 486.9C947.479 486.868 947.881 486.921 948.26 487.053C949.047 487.341 949.695 487.914 950.08 488.659L962.871 512.753C963.278 513.493 963.396 514.358 963.192 515.178C963.091 515.565 962.909 515.926 962.657 516.239C962.406 516.551 962.09 516.808 961.737 516.992L911.156 543.779C910.85 543.946 910.524 544.064 910.181 544.132C909.684 544.235 909.175 544.212 908.688 544.068ZM667.086 851.285C666.165 849.545 664.249 848.882 662.628 849.738L641.814 860.763L641.482 861.073L625.164 887.699L624.388 888.111L655.964 831.076V830.257L637.666 795.705C632.619 786.173 626.063 780.109 618.174 777.685C610.286 775.26 601.46 776.615 591.95 781.635L530.333 814.281C520.801 819.328 514.738 825.89 512.313 833.773C509.889 841.657 511.243 850.487 516.268 859.998L526.63 879.564C527.017 880.287 527.663 880.838 528.439 881.106C528.852 881.25 529.292 881.306 529.728 881.271C530.165 881.236 530.59 881.111 530.975 880.902L552.003 869.77L552.335 869.455L568.434 842.957L569.167 842.572L537.606 898.505V899.334L570.665 961.77C570.955 962.389 571.445 962.892 572.056 963.199C572.666 963.506 573.362 963.598 574.032 963.461C574.374 963.392 574.703 963.273 575.011 963.108L690.329 902.037C690.716 901.855 691.061 901.594 691.341 901.27C691.622 900.947 691.832 900.569 691.957 900.16C692.083 899.751 692.122 899.32 692.072 898.895C692.023 898.47 691.885 898.06 691.667 897.691L667.086 851.285ZM751.78 706.916C759.664 709.341 766.22 715.404 771.272 724.936L810.973 799.917C815.998 809.427 817.352 818.253 814.928 826.141C812.503 834.03 806.44 840.586 796.908 845.633L726.969 882.62C723.178 884.688 719.11 886.199 714.889 887.105C710.198 888.124 705.324 887.94 700.723 886.57C692.839 884.146 686.283 878.082 681.231 868.55L641.552 793.623C636.5 784.113 635.172 775.282 637.597 767.399C640.021 759.515 646.085 752.954 655.617 747.907L725.556 710.871C735.066 705.846 743.897 704.492 751.78 706.916ZM741.012 826.345L742.404 825.606L728.97 800.238L729.366 804.359L741.012 826.345ZM722.184 790.786L721.783 786.666L711.464 767.179L710.073 767.918L722.184 790.786ZM923.652 716.218C923.272 715.463 922.625 714.88 921.833 714.586C921.453 714.453 921.051 714.4 920.655 714.432C920.254 714.463 919.869 714.578 919.515 714.768L898.835 725.718L856.25 645.299C855.864 644.556 855.212 643.983 854.425 643.694C854.047 643.562 853.646 643.511 853.247 643.544C852.848 643.576 852.46 643.691 852.108 643.881L773.011 685.765C772.655 685.95 772.342 686.206 772.092 686.519C771.841 686.831 771.658 687.193 771.556 687.58C771.353 688.4 771.47 689.267 771.882 690.004L796.571 736.63C796.958 737.375 797.608 737.947 798.396 738.236C798.772 738.369 799.172 738.421 799.57 738.391C799.968 738.36 800.355 738.248 800.708 738.059L818.471 728.651L834.864 759.601L806.274 774.741C805.887 774.924 805.542 775.185 805.262 775.508C804.981 775.832 804.771 776.21 804.646 776.619C804.52 777.028 804.481 777.459 804.531 777.884C804.58 778.309 804.718 778.718 804.936 779.087L829.185 824.884C829.475 825.502 829.965 826.005 830.576 826.313C831.186 826.619 831.882 826.711 832.552 826.575C832.894 826.506 833.224 826.387 833.531 826.222L946.773 766.28C947.126 766.095 947.442 765.838 947.688 765.525C947.939 765.213 948.121 764.852 948.223 764.466C948.426 763.646 948.309 762.78 947.902 762.041L923.652 716.218ZM1055.15 672.61L1068.64 698.08C1069.04 698.812 1069.15 699.667 1068.96 700.478C1068.86 700.864 1068.67 701.224 1068.42 701.535C1068.17 701.847 1067.86 702.103 1067.51 702.287L1009.02 733.264C1008.71 733.426 1008.38 733.544 1008.04 733.617C1007.54 733.719 1007.03 733.697 1006.54 733.553C1005.73 733.287 1005.06 732.71 1004.66 731.947L991.178 706.483L941.148 732.975C940.779 733.192 940.372 733.33 939.944 733.38C939.521 733.43 939.087 733.391 938.681 733.265C938.268 733.139 937.894 732.929 937.567 732.649C937.246 732.369 936.984 732.024 936.802 731.637L883.443 630.919C883.226 630.55 883.088 630.14 883.038 629.715C882.988 629.29 883.027 628.859 883.153 628.451C883.279 628.042 883.489 627.663 883.769 627.34C884.05 627.017 884.394 626.756 884.781 626.573L930.369 602.43C930.722 602.242 931.108 602.128 931.509 602.096C931.905 602.065 932.306 602.117 932.686 602.249C933.473 602.536 934.121 603.109 934.506 603.854L969.165 669.319L970.15 668.784L936.315 602.907C936.101 602.538 935.962 602.129 935.914 601.705C935.865 601.281 935.908 600.851 936.031 600.444C936.16 600.036 936.369 599.659 936.647 599.337C936.931 599.014 937.273 598.754 937.658 598.572L996.15 567.595C996.503 567.405 996.888 567.291 997.29 567.259C997.686 567.228 998.087 567.28 998.467 567.413C999.254 567.699 999.907 568.272 1000.29 569.018L1034.94 634.451L1040.01 631.775C1040.36 631.585 1040.75 631.471 1041.15 631.44C1041.54 631.408 1041.95 631.46 1042.33 631.593C1043.12 631.886 1043.77 632.47 1044.15 633.226L1061.35 665.696C1062.2 667.317 1061.72 669.137 1060.22 669.934L1055.15 672.61Z" fill="black"/>
</svg>
